<?xml version="1.0" encoding="UTF-8" standalone="no"?>
<!-- Created with Inkscape (http://www.inkscape.org/) -->

<svg
   width="918.62762mm"
   height="594.26862mm"
   viewBox="0 0 918.62762 594.26862"
   version="1.1"
   id="svg6764"
   xml:space="preserve"
   inkscape:version="1.2.1 (9c6d41e410, 2022-07-14)"
   sodipodi:docname="logo-text.svg"
   xmlns:inkscape="http://www.inkscape.org/namespaces/inkscape"
   xmlns:sodipodi="http://sodipodi.sourceforge.net/DTD/sodipodi-0.dtd"
   xmlns="http://www.w3.org/2000/svg"
   xmlns:svg="http://www.w3.org/2000/svg"><sodipodi:namedview
     id="namedview6766"
     pagecolor="#505050"
     bordercolor="#eeeeee"
     borderopacity="1"
     inkscape:showpageshadow="0"
     inkscape:pageopacity="0"
     inkscape:pagecheckerboard="0"
     inkscape:deskcolor="#505050"
     inkscape:document-units="mm"
     showgrid="false"
     inkscape:zoom="0.39798857"
     inkscape:cx="1300.2886"
     inkscape:cy="1294.007"
     inkscape:window-width="3840"
     inkscape:window-height="2036"
     inkscape:window-x="-12"
     inkscape:window-y="-12"
     inkscape:window-maximized="1"
     inkscape:current-layer="svg6764"><inkscape:page
       x="0"
       y="0"
       width="918.62762"
       height="594.26862"
       id="page6820" /><inkscape:page
       x="-302.69473"
       y="-8.4212589"
       width="1416.1276"
       height="796.57227"
       id="page6822" /></sodipodi:namedview><defs
     id="defs6761" /><g
     inkscape:label="Layer 1"
     inkscape:groupmode="layer"
     id="layer1"
     transform="translate(-522.69475,-8.421259)" /><path
     id="path6780"
     style="fill:#359d70;fill-opacity:1;fill-rule:nonzero;stroke:none;stroke-width:0.0352778"
     d="m -229.40994,0 v 594.26864 h 105.97699 L 250.31995,0 Z" /><path
     id="path6782"
     style="fill:#f14621;fill-opacity:1;fill-rule:nonzero;stroke:none;stroke-width:0.0352778;stroke-opacity:1"
     d="M 316.22393,0 201.97303,594.26864 H 953.14384 V 0 Z"
     sodipodi:nodetypes="ccccc" /><path
     id="path6784"
     style="fill:#fafaf4;fill-opacity:1;fill-rule:nonzero;stroke:none;stroke-width:0.0352778"
     d="m 250.31995,0 -373.7529,594.26864 H 201.97303 L 316.22393,0 Z" /><path
     d="m 219.31202,504.08724 c -34.07833,-29.17825 -59.29842,-56.94892 -74.00925,-82.1302 12.0015,8.96761 25.2095,16.61936 39.46878,22.68361 l 0.004,0.004 c 0.26105,0.10936 0.52211,0.21872 0.78316,0.33161 0.007,0 0.0141,0.004 0.0176,0.007 0.17286,0.0706 0.34573,0.14464 0.52211,0.21519 0,0.004 0.004,0.004 0.007,0.004 0.0811,0.0353 0.16581,0.0706 0.24694,0.10231 0.007,0.004 0.0141,0.007 0.0247,0.0106 0.16933,0.0706 0.33867,0.14111 0.508,0.21167 0.0106,0.004 0.0212,0.007 0.0317,0.0141 0.0776,0.0282 0.15875,0.0635 0.23283,0.0953 0.0106,0.004 0.0141,0.004 0.0212,0.007 0.0847,0.0353 0.17286,0.0706 0.25753,0.10584 0.004,0 0.007,0.004 0.0106,0.004 0.0811,0.0317 0.15875,0.0635 0.23989,0.0988 0.0141,0.004 0.0247,0.0106 0.0388,0.0141 0.0811,0.0353 0.16228,0.067 0.24342,0.0988 l 0.007,0.004 c 0.0847,0.0353 0.16933,0.067 0.254,0.10231 0.0106,0.004 0.0247,0.0106 0.0353,0.0141 0.0741,0.0318 0.14112,0.0565 0.2152,0.0847 0.0141,0.007 0.0317,0.0141 0.0494,0.0212 0.16228,0.067 0.32808,0.13405 0.49389,0.19754 0.0176,0.007 0.0353,0.0141 0.0564,0.0212 0.067,0.0282 0.13406,0.0529 0.20461,0.0811 0.0141,0.007 0.0247,0.0106 0.0423,0.0176 0.0847,0.0353 0.16227,0.0635 0.24694,0.0988 0.0141,0.004 0.0212,0.007 0.0317,0.0141 0.0706,0.0247 0.14464,0.0529 0.21167,0.0811 0.0247,0.0106 0.0459,0.0176 0.067,0.0282 0.0706,0.0247 0.14112,0.0529 0.20814,0.0811 0.0106,0.004 0.0247,0.007 0.0353,0.0106 0.0811,0.0317 0.16228,0.0635 0.24342,0.0952 0.0212,0.0106 0.0388,0.0141 0.0564,0.0247 0.067,0.0247 0.127,0.0459 0.19403,0.0741 0.0212,0.007 0.0423,0.0176 0.067,0.0247 0.0811,0.0318 0.15875,0.0635 0.23989,0.0953 v 0 c 4.24039,1.62984 8.56191,3.13267 12.96811,4.48381 0.004,0 0.007,0 0.007,0 0.0811,0.0247 0.16228,0.0494 0.24342,0.0741 4.75545,1.44992 9.525,2.70581 14.29809,3.7712 3.28436,0.73377 6.56519,1.37583 9.84955,1.92969 l -8.97467,46.69367 M 174.8338,360.2809 c -0.0106,-0.0459 -0.0212,-0.0882 -0.0353,-0.13406 0.0141,0.0459 0.0247,0.0882 0.0353,0.13406 m -0.0459,-0.17286 c -0.0106,-0.0353 -0.0176,-0.067 -0.0282,-0.10231 0.0106,0.0353 0.0176,0.067 0.0282,0.10231 m -0.0353,-0.13759 c -0.0141,-0.0459 -0.0247,-0.0882 -0.0388,-0.13405 0.0141,0.0423 0.0247,0.0882 0.0388,0.13405 m -0.0423,-0.15169 c -0.0106,-0.0388 -0.0212,-0.0776 -0.0317,-0.11289 0.0106,0.0388 0.0212,0.0741 0.0317,0.11289 m -0.0423,-0.15875 c -0.0106,-0.0353 -0.0212,-0.0706 -0.0317,-0.10583 0.0106,0.0353 0.0212,0.0705 0.0317,0.10583 m -0.0388,-0.13053 c -0.0106,-0.0494 -0.0247,-0.0917 -0.0353,-0.13758 0.0106,0.0459 0.0247,0.0917 0.0353,0.13758 m -0.0459,-0.1658 c -0.007,-0.0353 -0.0176,-0.067 -0.0282,-0.10231 0.0106,0.0353 0.0212,0.0706 0.0282,0.10231 m -0.0388,-0.14817 c -0.0106,-0.0317 -0.0212,-0.067 -0.0282,-0.0988 0.007,0.0317 0.0176,0.067 0.0282,0.0988 m -0.0388,-0.13406 c -0.0106,-0.0423 -0.0247,-0.0847 -0.0353,-0.127 0.0106,0.0423 0.0212,0.0847 0.0353,0.127 m -0.0494,-0.17286 c -0.007,-0.0282 -0.0176,-0.0564 -0.0247,-0.0847 0.007,0.0282 0.0176,0.0564 0.0247,0.0847 m -0.0388,-0.13758 c -0.0106,-0.0317 -0.0212,-0.067 -0.0282,-0.0988 0.0106,0.0353 0.0176,0.0635 0.0282,0.0988 m -0.0494,-0.16933 c -0.007,-0.0282 -0.0141,-0.0564 -0.0247,-0.0811 0.0106,0.0247 0.0176,0.0529 0.0247,0.0811 m -0.0423,-0.14464 c -0.007,-0.0247 -0.0106,-0.0459 -0.0176,-0.067 0.007,0.0212 0.0106,0.0423 0.0176,0.067 m -0.0388,-0.13405 c -0.004,-0.0141 -0.007,-0.0318 -0.0106,-0.0459 0.004,0.0141 0.007,0.0317 0.0106,0.0459 m -0.0564,-0.19403 c -0.004,-0.0141 -0.007,-0.0247 -0.0106,-0.0388 0.004,0.0106 0.007,0.0247 0.0106,0.0388 m -0.0388,-0.13052 c 0,-0.007 0,-0.0106 -0.004,-0.0176 0.004,0.007 0.004,0.0106 0.004,0.0176 m -0.0952,-0.33162 v 0 0 m 21.63939,-12.32958 c -0.004,-0.0176 -0.0106,-0.0353 -0.0176,-0.0529 0.007,0.0176 0.0141,0.0353 0.0176,0.0529 m -0.0529,-0.15875 c -0.007,-0.0212 -0.0141,-0.0423 -0.0212,-0.0635 0.007,0.0212 0.0141,0.0423 0.0212,0.0635 m -0.06,-0.1764 c -0.004,-0.0141 -0.0106,-0.0282 -0.0141,-0.0423 0.004,0.0141 0.0106,0.0282 0.0141,0.0423 m -0.067,-0.20108 c -0.007,-0.0176 -0.0141,-0.0317 -0.0176,-0.0494 0.004,0.0176 0.0106,0.0353 0.0176,0.0494 m -0.0565,-0.15875 c -0.007,-0.0212 -0.0141,-0.0423 -0.0212,-0.0635 0.007,0.0212 0.0141,0.0423 0.0212,0.0635 m -0.0564,-0.16228 c -0.007,-0.0212 -0.0141,-0.0423 -0.0212,-0.0635 0.007,0.0212 0.0141,0.0423 0.0212,0.0635 m -0.06,-0.17639 c -0.007,-0.0176 -0.0141,-0.0317 -0.0176,-0.0494 0.004,0.0176 0.0106,0.0317 0.0176,0.0494 m -0.0706,-0.19755 c -0.007,-0.0212 -0.0141,-0.0459 -0.0247,-0.067 0.007,0.0212 0.0176,0.0459 0.0247,0.067 m -0.0564,-0.15875 c -0.007,-0.0212 -0.0141,-0.0459 -0.0247,-0.067 0.0106,0.0212 0.0176,0.0459 0.0247,0.067 m -0.0565,-0.16228 c -0.007,-0.0212 -0.0176,-0.0459 -0.0247,-0.067 0.0106,0.0247 0.0176,0.0423 0.0247,0.067 m -0.0776,-0.2152 c -0.007,-0.0176 -0.0141,-0.0388 -0.0212,-0.0564 0.007,0.0176 0.0141,0.0388 0.0212,0.0564 m -0.0529,-0.15521 c -0.0106,-0.0247 -0.0176,-0.0494 -0.0282,-0.0776 0.0106,0.0282 0.0176,0.0529 0.0282,0.0776 m -0.06,-0.15875 c -0.007,-0.0247 -0.0176,-0.0529 -0.0247,-0.0776 0.007,0.0247 0.0176,0.0529 0.0247,0.0776 m -0.0529,-0.15522 c -0.0141,-0.0388 -0.0282,-0.0741 -0.0423,-0.11289 0.0141,0.0388 0.0282,0.0741 0.0423,0.11289 m -0.0811,-0.21872 c -0.0106,-0.0282 -0.0212,-0.0565 -0.0282,-0.0847 0.007,0.0282 0.0176,0.0564 0.0282,0.0847 m -0.0564,-0.15524 c -0.0106,-0.0317 -0.0212,-0.06 -0.0317,-0.0917 0.0106,0.0317 0.0212,0.06 0.0317,0.0917 m -0.0564,-0.15168 c -0.0106,-0.0317 -0.0212,-0.0635 -0.0317,-0.0917 0.0106,0.0282 0.0212,0.06 0.0317,0.0917 m -0.0529,-0.14817 c -0.0212,-0.06 -0.0423,-0.11641 -0.0635,-0.1764 0.0212,0.0564 0.0423,0.11996 0.0635,0.1764 m -0.0882,-0.23636 c -0.0106,-0.0282 -0.0212,-0.06 -0.0318,-0.0882 0.0106,0.0282 0.0212,0.06 0.0318,0.0882 m -0.0565,-0.15169 c -0.0106,-0.0318 -0.0212,-0.0635 -0.0317,-0.0953 0.0106,0.0317 0.0212,0.0635 0.0317,0.0953 m -0.0529,-0.1517 c -0.0459,-0.11289 -0.0882,-0.2293 -0.13052,-0.34572 0.0423,0.11642 0.0882,0.23283 0.13052,0.34572 m -0.14111,-0.37747 c -0.0141,-0.0353 -0.0282,-0.0741 -0.0423,-0.10936 0.0141,0.0353 0.0282,0.0741 0.0423,0.10936 m -0.0564,-0.14817 c -0.0141,-0.0388 -0.0282,-0.0741 -0.0423,-0.11288 0.0141,0.0388 0.0282,0.0776 0.0423,0.11288 m -0.0529,-0.13405 c -0.0459,-0.12347 -0.0952,-0.25047 -0.14111,-0.37395 0.0459,0.12348 0.0953,0.25048 0.14111,0.37395 m -0.1519,-0.39864 c -0.0141,-0.0423 -0.0318,-0.0811 -0.0459,-0.11994 0.0141,0.0388 0.0317,0.0776 0.0459,0.11994 m -0.0529,-0.14111 c -0.067,-0.17286 -0.13405,-0.34925 -0.20461,-0.52211 0.0706,0.17286 0.13758,0.34925 0.20461,0.52211 m -0.20814,-0.53622 c -3.07622,-7.89164 -6.96736,-15.4552 -11.57816,-22.54603 v 0 c 4.6108,7.09083 8.50194,14.65439 11.57816,22.54603"
     style="fill:#000000;fill-opacity:0.323851;fill-rule:nonzero;stroke:none;stroke-width:0.0352778"
     id="path6788" /><path
     d="m 395.10471,205.89122 c -16.2701,1.99672 -32.5861,4.86128 -48.6445,8.13858 -15.6845,3.20323 -31.1679,8.11742 -47.1135,9.92717 -26.1832,2.97039 -54.97688,-4.16983 -74.93705,-21.90044 -18.25625,-16.2172 -28.40919,-40.16728 -26.38425,-64.32904 1.92617,-23.0399 17.69886,-42.259245 34.20886,-58.980905 27.16394,-3.993444 55.61194,-2.197805 83.61544,6.335889 63.3059,19.289876 109.3364,68.385966 127.4021,127.222246 -15.3987,-6.63575 -31.0656,-8.509 -48.1471,-6.4135"
     style="fill:#9bd41f;fill-opacity:1;fill-rule:nonzero;stroke:none;stroke-width:0.0352778"
     id="path6790" /><path
     d="m 126.99713,298.58359 c 23.80897,12.07205 41.00689,36.24439 47.83667,61.69732 4.16278,15.49752 5.25992,31.70414 8.02922,47.47331 2.3107,13.14802 4.94595,26.35603 8.05745,39.38058 C 123.81155,421.27972 78.670093,360.85241 69.885923,292.82626 c 18.77484,-5.35516 39.348847,-3.25261 57.111207,5.75734"
     style="fill:#9bd41f;fill-opacity:1;fill-rule:nonzero;stroke:none;stroke-width:0.0352778"
     id="path6792" /><path
     d="m 205.55722,394.76846 c -2.51178,-16.60526 -4.36739,-33.27048 -9.76489,-49.27247 -10.16,-30.11665 -32.06398,-56.11636 -60.67426,-70.11812 -20.37997,-9.97302 -44.562897,-12.47422 -66.787897,-7.44008 0.0494,-18.33033 2.73756,-36.96407 8.35731,-55.40729 17.92817,-58.82569 61.595007,-102.73241 114.896207,-123.144135 -10.61509,15.561025 -17.94934,32.871835 -18.3127,52.899025 -0.508,28.14462 11.73339,56.82544 32.52612,75.82959 23.51264,21.49123 55.7318,32.34267 87.4748,30.75869 16.8663,-0.84314 33.0517,-5.22111 49.4241,-8.96761 16.7323,-3.83117 33.708,-6.51934 50.666,-9.12989 15.1765,-2.33892 29.3723,-1.9297 43.2611,5.30578 4.7273,2.46591 9.2181,5.28813 13.5361,8.35377 3.2914,26.00678 1.2771,53.1107 -6.858,79.80893 -29.4005,96.4812 -128.0336,152.83745 -224.86407,131.21923 -1.09009,-3.29142 -2.01084,-6.69573 -2.80459,-10.20587 -3.78178,-16.73577 -7.50358,-33.5174 -10.07533,-50.48955"
     style="fill:#9bd41f;fill-opacity:1;fill-rule:nonzero;stroke:none;stroke-width:0.0352778"
     id="path6794" /><path
     d="m 397.30251,210.87597 c -16.4218,2.01436 -32.893,4.90714 -49.1031,8.2162 -15.8327,3.23144 -31.4607,8.19502 -47.5545,10.01889 -26.4336,2.99861 -55.49897,-4.20864 -75.64258,-22.10506 -15.99847,-14.21342 -25.82686,-34.30764 -26.80759,-55.31556 2.04964,19.18758 11.49703,37.29214 26.21492,50.36609 19.96017,17.73061 48.75385,24.87083 74.93705,21.90044 15.9456,-1.80975 31.429,-6.72394 47.1135,-9.92717 16.0584,-3.27729 32.3744,-6.14186 48.6445,-8.13857 17.0815,-2.0955 32.7484,-0.22225 48.1471,6.4135 0.4551,1.49225 0.8926,2.99155 1.3124,4.49439 -15.113,-6.24064 -30.5153,-7.97983 -47.2617,-5.92314"
     style="fill:#e9ebb6;fill-opacity:1;fill-rule:nonzero;stroke:none;stroke-width:0.0352778"
     id="path6796" /><path
     d="m 191.58722,89.386365 c 13.04925,-4.998863 26.67705,-8.583085 40.65058,-10.63978 -1.4993,1.516945 -2.98803,3.055056 -4.46616,4.614334 -14.79198,15.624526 -27.99292,33.415101 -29.74623,54.366571 -0.39511,4.68137 -0.32455,9.35214 0.16933,13.96295 0.98073,21.00792 10.80912,41.10214 26.80759,55.31556 20.14361,17.89642 49.20898,25.10367 75.64258,22.10506 16.0938,-1.82387 31.7218,-6.78745 47.5545,-10.01889 16.2101,-3.30906 32.6813,-6.20184 49.1031,-8.2162 16.7464,-2.05669 32.1487,-0.3175 47.2617,5.92314 2.5294,9.02406 4.4097,18.25625 5.595,27.63661 -4.318,-3.06211 -8.8088,-5.88786 -13.5361,-8.35377 -13.8888,-7.23548 -28.0846,-7.6447 -43.2611,-5.30578 -16.9545,2.61408 -33.9337,5.29872 -50.666,9.12989 -16.3724,3.7465 -32.5578,8.12447 -49.4241,8.96761 -31.743,1.58397 -63.96216,-9.26747 -87.4748,-30.7587 -19.26873,-17.61067 -31.18203,-43.52925 -32.42381,-69.63128 -0.0988,-2.06375 -0.13758,-4.13103 -0.10231,-6.19831 0.36336,-20.02719 7.69761,-37.338 18.31623,-52.899015"
     style="fill:#fbfce2;fill-opacity:1;fill-rule:nonzero;stroke:none;stroke-width:0.0352778"
     id="path6798" /><path
     d="m 181.32844,366.19345 c 4.25803,15.87148 5.38339,32.46614 8.21972,48.61631 2.01436,11.45822 4.28978,22.95173 6.87917,34.34645 -1.84856,-0.65264 -3.68653,-1.32292 -5.50334,-2.02142 -3.11502,-13.02454 -5.75027,-26.23255 -8.06097,-39.38058 -2.7693,-15.76916 -3.86644,-31.97578 -8.02922,-47.47331 -4.99886,-18.62667 -15.55397,-36.55837 -30.18014,-49.57234 17.97755,13.49728 30.91744,34.04659 36.67478,55.48489"
     style="fill:#e9ebb6;fill-opacity:1;fill-rule:nonzero;stroke:none;stroke-width:0.0352778"
     id="path6800" /><path
     d="m 135.11807,275.37786 c 6.22653,3.048 12.13203,6.66398 17.67064,10.76326 19.91784,14.74964 35.05553,35.79283 43.00362,59.35487 5.3975,16.002 7.25311,32.66721 9.76489,49.27247 2.57175,16.97215 6.29355,33.75378 10.07533,50.48955 0.79375,3.51014 1.7145,6.91445 2.80459,10.20587 -4.77309,-1.06538 -9.54264,-2.32128 -14.29809,-3.7712 -2.59997,-0.79375 -5.16819,-1.64394 -7.71172,-2.53647 -2.58939,-11.39472 -4.86481,-22.88823 -6.87917,-34.34645 -2.83633,-16.15017 -3.96169,-32.74483 -8.21972,-48.61631 -5.75734,-21.4383 -18.69723,-41.98761 -36.67478,-55.48489 -5.36222,-4.77308 -11.26772,-8.88647 -17.65653,-12.12497 -16.7005,-8.4702 -35.884567,-10.83028 -53.724537,-6.63575 -1.13595,0.26811 -2.26484,0.55739 -3.38667,0.87841 -1.05833,-8.20208 -1.57692,-16.51352 -1.55575,-24.88847 22.225,-5.03414 46.407927,-2.53294 66.787897,7.44008"
     style="fill:#fbfce2;fill-opacity:1;fill-rule:nonzero;stroke:none;stroke-width:0.0352778"
     id="path6802" /><path
     d="m 260.06141,460.0641 c -10.5199,0 -21.142,-0.87489 -31.77472,-2.67053 v 0 c 10.63272,1.79564 21.25482,2.67053 31.77472,2.67053 v 0"
     style="fill:#a34f1e;fill-opacity:1;fill-rule:nonzero;stroke:none;stroke-width:0.0352778"
     id="path6804" /><path
     d="m 228.28669,457.39357 c -3.28436,-0.55386 -6.56519,-1.19592 -9.84955,-1.92969 -4.77309,-1.06538 -9.54264,-2.32128 -14.29809,-3.7712 -0.0811,-0.0247 -0.16228,-0.0494 -0.24342,-0.0741 0.0811,0.0247 0.16228,0.0494 0.24342,0.0741 4.75545,1.44992 9.525,2.70581 14.29809,3.7712 -1.09009,-3.29142 -2.01084,-6.69573 -2.80459,-10.20587 -2.21192,-9.78605 -4.40267,-19.58622 -6.35353,-29.43225 v 0 c 1.95086,9.84603 4.14161,19.6462 6.35353,29.43225 0.79375,3.51014 1.7145,6.91445 2.80459,10.20587 3.28436,0.73377 6.56519,1.37583 9.84955,1.92969 v 0"
     style="fill:#a4b37b;fill-opacity:1;fill-rule:nonzero;stroke:none;stroke-width:0.0352778"
     id="path6806" /><path
     d="m 443.36471,324.02592 c 0,-0.0106 0.011,-0.0247 0.014,-0.0388 0,0.0141 -0.011,0.0282 -0.014,0.0388 m 0.1517,-0.49389 v 0 0"
     style="fill:#a34f1e;fill-opacity:1;fill-rule:nonzero;stroke:none;stroke-width:0.0352778"
     id="path6808" /><path
     d="m 260.06141,460.0641 c -10.5199,0 -21.142,-0.87489 -31.77472,-2.67053 -3.28436,-0.55386 -6.56519,-1.19592 -9.84955,-1.92969 -1.09009,-3.29142 -2.01084,-6.69573 -2.80459,-10.20587 -2.21192,-9.78605 -4.40267,-19.58622 -6.35353,-29.43225 8.16681,0.95603 16.45356,1.43934 24.80028,1.43934 40.43891,0 82.45831,-11.29948 120.73821,-34.86502 26.543,-16.34067 48.6304,-36.94995 65.7507,-60.08866 7.2073,-9.73666 13.5361,-19.91783 18.9442,-30.42003 4.7449,-9.22161 8.7842,-18.69016 12.0897,-28.31394 0.4939,19.78378 -2.0814,39.97678 -8.0857,59.95458 v 0 c -0.046,0.15171 -0.092,0.30339 -0.1376,0.45509 0,0.0141 -0.011,0.0282 -0.014,0.0388 -0.021,0.0741 -0.042,0.14464 -0.063,0.21873 v 0 c -0.8608,2.82575 -1.7815,5.60916 -2.7587,8.36788 -27.619,77.81926 -101.1837,127.44804 -180.4811,127.45157"
     style="fill:#85bd27;fill-opacity:1;fill-rule:nonzero;stroke:none;stroke-width:0.0352778"
     id="path6810" /><path
     d="m 203.88858,451.6186 c -4.4062,-1.35113 -8.72772,-2.85397 -12.96811,-4.48381 v 0 0 0 0 c -2.59998,-10.89024 -4.86834,-21.90397 -6.89328,-32.90357 2.02494,10.99961 4.2933,22.01333 6.8968,32.90357 1.81681,0.69851 3.65478,1.36878 5.50334,2.02142 v 0 c 2.46239,0.8643 4.94594,1.6898 7.46125,2.46239 m -13.208,-4.57906 c -0.0247,-0.007 -0.0459,-0.0176 -0.067,-0.0247 0.0176,0.007 0.0459,0.0176 0.067,0.0247 m -0.26106,-0.0988 c -0.0176,-0.0106 -0.0353,-0.0141 -0.0564,-0.0247 0.0176,0.007 0.0423,0.0176 0.0564,0.0247 m -0.29986,-0.11994 c -0.0106,-0.004 -0.0247,-0.007 -0.0353,-0.0106 0.0141,0.004 0.0247,0.007 0.0353,0.0106 m -0.24342,-0.0917 c -0.0212,-0.0106 -0.0423,-0.0176 -0.067,-0.0282 0.0247,0.0106 0.0459,0.0176 0.067,0.0282 m -0.27869,-0.10935 c -0.0106,-0.007 -0.0176,-0.0106 -0.0317,-0.0141 0.0106,0.004 0.0247,0.0106 0.0317,0.0141 m -0.27869,-0.11289 c -0.0176,-0.007 -0.0282,-0.0106 -0.0423,-0.0176 0.0106,0.007 0.0317,0.0141 0.0423,0.0176 m -0.24695,-0.0988 c -0.0212,-0.007 -0.0388,-0.0141 -0.0564,-0.0212 0.0176,0.007 0.0353,0.0141 0.0564,0.0212 m -0.55033,-0.21872 c -0.0176,-0.007 -0.0353,-0.0141 -0.0494,-0.0212 0.0141,0.007 0.0317,0.0141 0.0494,0.0212 m -0.26459,-0.10584 c -0.0106,-0.004 -0.0247,-0.0106 -0.0353,-0.0141 0.0106,0.004 0.0247,0.0106 0.0353,0.0141 m -0.28927,-0.11641 -0.007,-0.004 0.007,0.004 m -0.25048,-0.10231 c -0.0141,-0.004 -0.0247,-0.0106 -0.0388,-0.0141 0.0106,0.004 0.0282,0.0106 0.0388,0.0141 m -0.27869,-0.11289 c -0.004,0 -0.007,-0.004 -0.0106,-0.004 0.007,0.004 0.007,0.004 0.0106,0.004 m -0.26811,-0.10936 c -0.007,-0.004 -0.0106,-0.004 -0.0212,-0.007 0.0106,0.004 0.0141,0.004 0.0212,0.007 m -0.254,-0.1023 c -0.0106,-0.007 -0.0212,-0.0106 -0.0317,-0.0141 0.0106,0.004 0.0212,0.007 0.0317,0.0141 m -0.53975,-0.22578 c -0.0106,-0.004 -0.0176,-0.007 -0.0247,-0.0106 0.007,0.004 0.0141,0.007 0.0247,0.0106 m -0.27164,-0.11289 c -0.004,0 -0.007,0 -0.007,-0.004 0.004,0.004 0.004,0.004 0.007,0.004 m -0.52917,-0.21872 c -0.004,-0.004 -0.0106,-0.007 -0.0176,-0.007 0.004,0 0.0141,0.004 0.0176,0.007 m -0.8008,-0.33867 -0.004,-0.004 c 0.004,0.004 0,0 0.004,0.004"
     style="fill:#a4b37b;fill-opacity:1;fill-rule:nonzero;stroke:none;stroke-width:0.0352778"
     id="path6812" /><path
     d="m 190.92047,447.13479 v 0 c -0.0811,-0.0317 -0.15875,-0.0635 -0.23989,-0.0953 -0.0212,-0.007 -0.0494,-0.0176 -0.067,-0.0247 -0.0635,-0.0247 -0.13053,-0.0529 -0.19403,-0.0741 -0.0141,-0.007 -0.0388,-0.0176 -0.0564,-0.0247 -0.0811,-0.0317 -0.16228,-0.0635 -0.24342,-0.0952 -0.0106,-0.004 -0.0212,-0.007 -0.0353,-0.0106 -0.0706,-0.0282 -0.13758,-0.0565 -0.20814,-0.0811 -0.0212,-0.0106 -0.0423,-0.0176 -0.067,-0.0282 -0.0706,-0.0282 -0.14111,-0.0564 -0.21167,-0.0811 -0.007,-0.004 -0.0212,-0.0106 -0.0317,-0.0141 -0.0811,-0.0317 -0.16581,-0.067 -0.24694,-0.0988 -0.0106,-0.004 -0.0317,-0.0106 -0.0423,-0.0176 -0.067,-0.0247 -0.13758,-0.0529 -0.20461,-0.0811 -0.0212,-0.007 -0.0388,-0.0141 -0.0564,-0.0212 -0.16581,-0.067 -0.32809,-0.13052 -0.49389,-0.19755 -0.0176,-0.007 -0.0353,-0.0141 -0.0494,-0.0212 -0.0706,-0.0282 -0.14464,-0.0564 -0.2152,-0.0847 -0.0106,-0.004 -0.0247,-0.0106 -0.0353,-0.0141 -0.0847,-0.0353 -0.16934,-0.067 -0.254,-0.1023 l -0.007,-0.004 c -0.0811,-0.0317 -0.15875,-0.0635 -0.24342,-0.0988 -0.0106,-0.004 -0.0282,-0.0106 -0.0388,-0.0141 -0.0811,-0.0317 -0.16228,-0.067 -0.23989,-0.0988 -0.004,0 -0.004,0 -0.0106,-0.004 -0.0847,-0.0353 -0.17286,-0.0706 -0.25753,-0.10584 -0.007,-0.004 -0.0106,-0.004 -0.0212,-0.007 -0.0776,-0.0317 -0.15522,-0.0635 -0.23283,-0.0953 -0.0106,-0.007 -0.0212,-0.0106 -0.0317,-0.0141 -0.16933,-0.0706 -0.3422,-0.14112 -0.508,-0.21168 -0.0106,-0.004 -0.0176,-0.007 -0.0247,-0.0106 -0.0811,-0.0317 -0.1658,-0.067 -0.24694,-0.10231 -0.004,0 -0.004,0 -0.007,-0.004 -0.17638,-0.0705 -0.34572,-0.14111 -0.52211,-0.21519 -0.004,-0.004 -0.0141,-0.007 -0.0176,-0.007 -0.26105,-0.11289 -0.52211,-0.22225 -0.78316,-0.33161 -0.004,-0.004 0,0 -0.004,-0.004 -43.12003,-18.34092 -76.59512,-51.19864 -96.371847,-90.96023 24.807347,28.80078 58.120147,48.2459 95.063037,57.4534 0.18698,1.03011 0.37395,2.06375 0.56445,3.09739 2.02494,10.99961 4.2933,22.01333 6.89328,32.90358"
     style="fill:#85bd27;fill-opacity:1;fill-rule:nonzero;stroke:none;stroke-width:0.0352778"
     id="path6814" /><path
     d="m 196.42733,449.15621 c -1.84856,-0.65264 -3.68653,-1.32292 -5.50334,-2.02142 -2.6035,-10.89024 -4.87186,-21.90397 -6.8968,-32.90357 -0.1905,-1.03364 -0.37747,-2.06728 -0.56445,-3.0974 1.88737,0.4692 3.78178,0.91369 5.68678,1.32997 0.13053,0.78317 0.26106,1.56282 0.39864,2.34598 2.01436,11.45821 4.28978,22.95173 6.87917,34.34645"
     style="fill:#bac873;fill-opacity:1;fill-rule:nonzero;stroke:none;stroke-width:0.0352778"
     id="path6816" /><path
     d="m 218.43714,455.46388 c -4.77309,-1.06538 -9.54264,-2.32128 -14.29809,-3.7712 -0.0811,-0.0247 -0.16228,-0.0494 -0.24342,-0.0741 0,0 -0.004,0 -0.007,0 -2.51531,-0.77258 -4.99886,-1.59809 -7.46125,-2.46239 v 0 c -2.58939,-11.39472 -4.86481,-22.88823 -6.87917,-34.34645 -0.13758,-0.78316 -0.26811,-1.5628 -0.39864,-2.34597 6.61459,1.44639 13.32795,2.56822 20.1295,3.36197 1.95086,9.84603 4.14161,19.6462 6.35353,29.43225 0.79375,3.51014 1.7145,6.91445 2.80459,10.20587"
     style="fill:#c9d790;fill-opacity:1;fill-rule:nonzero;stroke:none;stroke-width:0.0352778"
     id="path6818" /><path
     d="M 954.49186,824.05044 764.72409,788.15117 C 743.50804,780.73924 722.09795,772.93583 700.5397,764.75139 492.71126,685.82798 318.52018,589.03281 219.31202,504.08745 l 8.97467,-46.69366 c 10.63272,1.79564 21.25486,2.67053 31.77469,2.67053 v 0 0 c 79.29739,0 152.86214,-49.63231 180.48111,-127.45155 0.97719,-2.75872 1.89794,-5.54214 2.75872,-8.36789 v 0 c 0.0212,-0.0741 0.0423,-0.14464 0.0635,-0.21872 0.004,-0.0106 0.0106,-0.0247 0.0141,-0.0388 0.0459,-0.1517 0.0917,-0.30339 0.13758,-0.45509 v 0 c 0.35984,-1.2065 0.71262,-2.413 1.04775,-3.6195 111.86936,19.30753 244.73253,56.0952 383.57527,108.82136 18.923,7.18256 108.02214,42.57057 126.35245,50.02829 v 345.28803"
     style="fill:#a42f16;fill-opacity:1;fill-rule:nonzero;stroke:none;stroke-width:0.0352778"
     id="path709"
     sodipodi:nodetypes="cccccscscssccsscccc" /><text
     xml:space="preserve"
     style="font-style:normal;font-weight:normal;font-size:136.253px;line-height:0.95;font-family:sans-serif;fill:#000000;fill-opacity:1;stroke:none;stroke-width:1.0219"
     x="492.60959"
     y="151.30815"
     id="text1370"><tspan
       sodipodi:role="line"
       id="tspan1368"
       style="font-style:normal;font-variant:normal;font-weight:normal;font-stretch:normal;font-size:136.253px;font-family:Gadugi;-inkscape-font-specification:Gadugi;fill:#ffffff;stroke-width:1.0219"
       x="492.60959"
       y="151.30815">Roster</tspan><tspan
       sodipodi:role="line"
       style="font-style:normal;font-variant:normal;font-weight:normal;font-stretch:normal;font-size:136.253px;font-family:Gadugi;-inkscape-font-specification:Gadugi;fill:#ffffff;stroke-width:1.0219"
       x="492.60959"
       y="282.32574"
       id="tspan1372">Gen</tspan></text></svg>
