<?xml version="1.0" encoding="UTF-8" standalone="no"?>
<!-- Created with Inkscape (http://www.inkscape.org/) -->

<svg
   width="500mm"
   height="50mm"
   viewBox="0 0 500 50"
   version="1.1"
   id="svg16152"
   inkscape:version="1.2.1 (9c6d41e410, 2022-07-14)"
   sodipodi:docname="tennis-players.svg"
   xmlns:inkscape="http://www.inkscape.org/namespaces/inkscape"
   xmlns:sodipodi="http://sodipodi.sourceforge.net/DTD/sodipodi-0.dtd"
   xmlns="http://www.w3.org/2000/svg"
   xmlns:svg="http://www.w3.org/2000/svg">
  <sodipodi:namedview
     id="namedview16154"
     pagecolor="#505050"
     bordercolor="#eeeeee"
     borderopacity="1"
     inkscape:showpageshadow="0"
     inkscape:pageopacity="0"
     inkscape:pagecheckerboard="0"
     inkscape:deskcolor="#505050"
     inkscape:document-units="mm"
     showgrid="false"
     inkscape:zoom="0.64693624"
     inkscape:cx="1285.2889"
     inkscape:cy="469.9072"
     inkscape:window-width="3840"
     inkscape:window-height="2036"
     inkscape:window-x="-12"
     inkscape:window-y="-12"
     inkscape:window-maximized="1"
     inkscape:current-layer="layer1" />
  <defs
     id="defs16149" />
  <g
     inkscape:label="Layer 1"
     inkscape:groupmode="layer"
     id="layer1"
     transform="translate(118.4494,-13.903024)">
    <g
       id="g20167">
      <rect
         style="fill:#2db361;stroke-width:1.11456;stop-color:#000000"
         id="rect20153"
         width="50"
         height="50"
         x="181.5506"
         y="13.903024" />
      <rect
         style="fill:#f14621;fill-opacity:1;stroke-width:1.11456;stop-color:#000000"
         id="rect20155"
         width="50"
         height="50"
         x="131.5506"
         y="13.903024" />
      <rect
         style="fill:#2db361;stroke-width:1.11456;stop-color:#000000"
         id="rect20157"
         width="50"
         height="50"
         x="81.550598"
         y="13.903024" />
      <rect
         style="fill:#f14621;fill-opacity:1;stroke-width:1.11456;stop-color:#000000"
         id="rect20147"
         width="50"
         height="50"
         x="31.5506"
         y="13.903024" />
      <rect
         style="fill:#2db361;stroke-width:1.11456;stop-color:#000000"
         id="rect20149"
         width="50"
         height="50"
         x="-18.4494"
         y="13.903024" />
      <rect
         style="fill:#f14621;fill-opacity:1;stroke-width:1.11456;stop-color:#000000"
         id="rect18243"
         width="50"
         height="50"
         x="-68.449402"
         y="13.903024" />
      <rect
         style="fill:#2db361;stroke-width:1.11456;stop-color:#000000"
         id="rect18241"
         width="50"
         height="50"
         x="-118.4494"
         y="13.903024" />
      <rect
         style="fill:#2db361;stroke-width:1.11456;stop-color:#000000"
         id="rect24451"
         width="50"
         height="50"
         x="281.5506"
         y="13.903024" />
      <rect
         style="fill:#f14621;fill-opacity:1;stroke-width:1.11456;stop-color:#000000"
         id="rect24453"
         width="50"
         height="50"
         x="231.5506"
         y="13.903024" />
      <rect
         style="fill:#f14621;fill-opacity:1;stroke-width:1.11456;stop-color:#000000"
         id="rect24540"
         width="50"
         height="50"
         x="331.5506"
         y="13.903024" />
    </g>
    <path
       d="m 199.02409,60.497083 c -0.78193,-0.188073 -0.88465,-0.45664 -0.51887,-1.356664 0.78762,-1.93797 1.7617,-5.881398 1.7617,-7.131851 0,-0.256525 0.30545,-1.093383 0.67878,-1.859696 0.37331,-0.766304 0.78614,-1.994578 0.91738,-2.729495 0.13124,-0.734909 0.48112,-2.302227 0.77748,-3.48292 0.59307,-2.362668 1.01591,-4.377684 1.01591,-4.841224 0,-0.473199 -1.22851,-0.59568 -2.41602,-0.24087 -0.8235,0.246046 -1.50519,0.730793 -2.81609,2.002529 -1.42313,1.380595 -1.91692,1.717853 -2.78688,1.903397 -2.57595,0.5494 -4.25752,-1.233431 -3.16186,-3.352231 0.6757,-1.306625 3.26032,-1.995568 5.00213,-1.333331 0.93785,0.35657 2.99466,0.303439 4.12014,-0.106425 1.18427,-0.43129 2.21199,-1.425825 1.84874,-1.789065 -0.13316,-0.133156 -0.24211,-0.459039 -0.24211,-0.724173 0,-0.265143 -0.068,-0.550167 -0.15132,-0.633396 -0.19851,-0.198525 -0.30477,-2.350275 -0.15529,-3.145199 0.0811,-0.431308 0.4124,-0.79565 1.07845,-1.185971 l 0.96136,-0.563406 -0.47115,-1.017073 c -0.25914,-0.559383 -0.60144,-1.017141 -0.7607,-1.017244 -0.45525,-2.22e-4 -0.55315,-0.550372 -0.27907,-1.568197 0.17957,-0.666909 0.41644,-0.999838 0.82069,-1.153534 0.87036,-0.330914 1.79743,-0.258191 2.28693,0.179394 0.4937,0.441327 1.09618,2.144722 0.88148,2.492118 -0.19239,0.311297 0.2946,1.626777 0.61259,1.654747 0.14319,0.01255 0.58406,0.0051 0.97968,-0.01606 0.91721,-0.04962 1.40337,0.21811 3.00156,1.652938 0.71359,0.640638 1.6351,1.423843 2.04783,1.74046 0.62701,0.481014 0.75831,0.738547 0.79845,1.566207 0.0264,0.544795 0.18659,1.101266 0.35594,1.2366 0.36413,0.290969 0.87285,1.151724 0.87285,1.476813 0,0.43253 -0.4754,0.228 -1.27494,-0.548493 -0.44033,-0.427644 -1.09624,-0.84247 -1.4576,-0.921837 -0.68091,-0.149546 -0.91406,-0.560331 -0.31805,-0.560331 0.20186,0 0.33896,-0.207707 0.33896,-0.513537 0,-0.360123 -0.24848,-0.647027 -0.83173,-0.960372 -0.45745,-0.245755 -0.96588,-0.416951 -1.12984,-0.380432 -0.16397,0.03655 -0.29813,-0.03972 -0.29813,-0.169479 0,-0.129732 -0.10169,-0.235875 -0.22597,-0.235875 -0.13032,0 -0.22596,0.708946 -0.22596,1.674895 0,0.921197 -0.14879,2.452515 -0.33064,3.402929 -0.351,1.834552 -0.26769,2.929345 0.27018,3.550604 0.18121,0.209287 0.3621,0.870251 0.40199,1.468802 0.42321,6.350875 0.44547,8.604198 0.10785,10.917954 -0.38049,2.607578 -0.30283,3.226122 0.56747,4.519397 1.18241,1.757046 1.11412,1.9004 -0.82783,1.737591 -0.9333,-0.07823 -1.70226,-0.259566 -1.81596,-0.428217 -0.10847,-0.160887 -0.12377,-0.648418 -0.034,-1.083407 0.0897,-0.43499 0.14618,-1.553541 0.12539,-2.485669 -0.0209,-0.932121 -0.0652,-2.932104 -0.0985,-4.444395 -0.0534,-2.419377 -0.11737,-2.812919 -0.53256,-3.276561 -0.25955,-0.289817 -0.70001,-0.908258 -0.97882,-1.374327 -0.2788,-0.466059 -0.57701,-0.847379 -0.66267,-0.847379 -0.0857,0 -0.40576,0.457587 -0.71127,1.016859 -0.4048,0.741015 -0.69392,1.016868 -1.06581,1.016868 -0.62197,0 -1.58451,1.421564 -1.98324,2.929055 -0.14917,0.563976 -0.71709,1.940591 -1.26206,3.059144 -0.96751,1.985883 -1.11958,2.70804 -1.1131,5.28688 0.003,0.990913 -0.49281,1.281011 -1.69383,0.992117 z m -3.1218,-18.382761 c 2.71798,-1.02692 2.37917,-4.037238 -0.42439,-3.770755 -1.30961,0.124488 -2.12246,0.635975 -2.5991,1.635472 -0.33886,0.710646 -0.33729,0.808409 0.0221,1.356911 0.62192,0.949175 1.76483,1.245577 3.00138,0.778372 z m 3.40426,-2.684502 c 0.6857,-0.572032 0.64257,-0.690661 -0.25112,-0.690661 -0.68834,0 -0.74945,0.05296 -0.65159,0.564926 0.12815,0.670248 0.23257,0.684793 0.90271,0.125735 z"
       style="fill:#000000;stroke-width:0.225969"
       id="path6057"
       sodipodi:nodetypes="csssscsscssssssccccccsscsccscccsssssscssscsccsssccsssscssccccssccssscs" />
    <path
       d="m -46.401269,59.263583 c -0.271599,-0.190236 -0.444373,-0.47475 -0.383937,-0.632247 0.06043,-0.157505 -0.204496,-0.518804 -0.58875,-0.802899 -0.566375,-0.418739 -0.685442,-0.652754 -0.628917,-1.236042 0.05864,-0.605133 0.159748,-0.716016 0.635884,-0.697485 0.31139,0.01215 0.736908,0.09654 0.945606,0.187608 0.65391,0.285327 1.132366,-0.808095 1.357874,-3.103136 0.512984,-5.220855 0.552732,-6.16349 0.283864,-6.73109 -0.1475,-0.311382 -0.342161,-0.922821 -0.432579,-1.358764 -0.09041,-0.435934 -0.314343,-1.115855 -0.497612,-1.510945 -0.244303,-0.526636 -0.27034,-0.835835 -0.09758,-1.158635 0.166501,-0.311107 0.157669,-0.646865 -0.03013,-1.14434 -0.201328,-0.533372 -0.202603,-0.883826 -0.0051,-1.445665 0.143255,-0.407895 0.212174,-1.04734 0.153141,-1.420998 -0.273696,-1.732448 -0.653131,-3.185259 -0.871484,-3.336834 -0.400901,-0.278282 -1.31459,-0.192982 -1.703586,0.159056 -0.201995,0.182806 -1.024187,0.500667 -1.827095,0.70636 -0.841492,0.215579 -1.586206,0.554418 -1.758185,0.799963 -0.259008,0.369772 -0.558073,0.41849 -2.267034,0.369327 -2.343896,-0.06745 -3.234236,0.303199 -5.281506,2.198613 -0.906173,0.838959 -1.595526,1.26808 -2.337023,1.454789 -2.973694,0.748789 -5.140552,-1.723632 -3.362528,-3.836687 1.178954,-1.401116 2.553116,-1.638657 5.162551,-0.892428 2.593463,0.741667 5.362132,0.484122 6.406681,-0.595956 0.285285,-0.294991 0.684449,-0.536351 0.887036,-0.536351 0.202586,0 1.017228,-0.356676 1.810319,-0.792611 0.793081,-0.435934 1.691869,-0.79261 1.997293,-0.79261 0.421829,0 0.635868,-0.192778 0.890399,-0.801966 0.25805,-0.617585 0.584144,-0.90626 1.418421,-1.255635 1.541819,-0.645685 1.774328,-0.805399 1.671807,-1.148389 -0.383193,-1.281989 -0.833986,-2.387728 -1.071323,-2.627795 -0.155237,-0.157025 -0.261995,-0.564654 -0.237225,-0.905839 0.08685,-1.196705 2.22334,-1.736514 3.562598,-0.900139 0.658309,0.411121 0.854451,1.120134 0.756244,2.733627 -0.09152,1.503491 -0.08715,1.516792 0.645615,1.963562 0.405764,0.247394 1.060906,0.450194 1.455876,0.450656 0.545235,8.56e-4 0.956065,0.238801 1.706523,0.989257 0.543617,0.543618 1.221432,1.062361 1.506246,1.152755 0.315584,0.100167 0.47071,0.287201 0.39717,0.478858 -0.07464,0.194446 0.259145,0.575825 0.87436,0.9991 1.053408,0.724763 1.06201,0.740777 1.502215,2.79682 0.239117,1.116866 0.232869,1.351762 -0.04048,1.522681 -0.244175,0.15266 -0.341245,0.06008 -0.396853,-0.378409 -0.04536,-0.357703 -0.327302,-0.724831 -0.734563,-0.956527 -0.404685,-0.230224 -0.661511,-0.563157 -0.662384,-0.85867 -0.0026,-0.822474 -2.756643,-2.627469 -3.252526,-2.131578 -0.39836,0.398351 -0.399891,4.209019 -0.0026,6.058402 0.416385,1.937481 0.292004,2.469098 -1.04864,4.481952 -1.187017,1.782203 -1.229025,2.689172 -0.1412,3.048185 0.420878,0.138898 0.955645,0.462955 1.188385,0.720124 0.562978,0.622087 1.5193,1.100595 2.199572,1.100595 0.303772,0 0.782905,0.186725 1.06474,0.414938 l 0.512419,0.414939 -0.600561,1.269492 c -0.330314,0.69822 -0.600569,1.515696 -0.600569,1.816601 0,0.686401 -1.00914,1.803985 -1.532498,1.697176 -0.336255,-0.06864 -0.382824,-0.313307 -0.325393,-1.709749 0.03748,-0.9119 -0.04536,-1.839608 -0.188079,-2.10632 -0.313273,-0.58536 -1.319828,-1.017699 -2.846035,-1.222434 l -1.155407,-0.155006 -0.130913,1.092335 c -0.07198,0.600784 -0.540749,2.162357 -1.041647,3.470168 -0.500899,1.307811 -1.075738,2.9638 -1.277427,3.679987 -0.395287,1.403631 -0.721827,1.594791 -1.633461,0.956253 z M -61.526842,39.909707 c 0.889988,-0.338377 1.704519,-1.334413 1.704519,-2.08434 0,-0.425766 -0.21926,-0.860622 -0.622763,-1.235127 -0.554573,-0.514713 -0.769048,-0.56748 -1.958581,-0.481845 -1.155844,0.0832 -1.422812,0.19353 -1.981535,0.818853 -0.72894,0.815832 -0.81472,1.505784 -0.281793,2.266641 0.612903,0.875044 1.931028,1.175521 3.140153,0.715818 z m 3.346359,-2.48038 c 0.342521,-0.171687 0.622763,-0.386565 0.622763,-0.477497 0,-0.130116 -1.585786,-0.452368 -1.735066,-0.352585 -0.113298,0.07574 0.230361,1.276467 0.347904,1.215595 0.07789,-0.04031 0.42188,-0.213825 0.764399,-0.385513 z"
       style="fill:#000000;stroke-width:0.226461"
       id="path8304"
       sodipodi:nodetypes="sssscssssssscsssssssssssssssssscssscsssssssscscssssscsssscsccsssssssssssssss" />
    <path
       d="m -7.5661627,57.553581 c -0.6723261,-0.346379 -0.7046847,-0.41805 -0.5714703,-1.265443 0.077625,-0.494044 0.3655935,-1.19577 0.6398514,-1.559382 0.2742489,-0.36361 0.9147663,-1.454452 1.4233689,-2.424081 1.1467125,-2.186173 1.7442846,-3.005814 3.213288,-4.407435 0.9887535,-0.943394 1.2363327,-1.355513 1.7215389,-2.865587 0.32582254,-1.014048 0.56677236,-2.278583 0.56687226,-2.975013 1.917e-4,-1.31963 0.7602219,-3.214271 1.97371614,-4.920194 0.359514,-0.505395 0.9575532,-1.860991 1.328985,-3.012434 0.5980977,-1.854095 0.823239,-2.250172 1.968552,-3.463167 1.0940236,-1.158674 1.2436459,-1.410784 0.9713788,-1.636742 -0.5371792,-0.445818 -0.9538882,-1.444491 -0.9538882,-2.286087 0,-0.862694 0.3232494,-1.649243 0.6777979,-1.649243 0.1218456,0 0.5057037,-0.210091 0.8530236,-0.466874 0.6173046,-0.456397 0.653985,-0.458287 1.633077,-0.08437 1.6569391,0.632787 2.0049997,1.369904 1.6358836,3.464433 -0.1127916,0.640026 -0.1866285,1.907434 -0.1640817,2.81647 0.1029465,4.150252 0.045891,3.823847 0.7094484,4.058358 1.13137,0.39985 1.21656,-0.111425 0.311663,-1.870537 -0.9050465,-1.759411 -1.0270496,-2.872981 -0.4483586,-4.092473 0.6420246,-1.352964 2.3562006,-1.817556 3.4709126,-0.94072 1.437453,1.130696 1.64926,3.143841 0.558169,5.305269 -0.373556,0.740007 -0.871664,2.106605 -1.106917,3.036881 -0.383776,1.517652 -0.395628,1.782365 -0.115356,2.576727 0.330445,0.93658 0.246005,2.045129 -0.166122,2.181 -0.135472,0.04464 -0.692474,0.19574 -1.237783,0.335726 l -0.991468,0.254526 1.018547,0.517639 c 1.223172,0.621636 2.176435,1.690772 2.176435,2.440982 0,0.301002 -0.536437,1.805695 -1.192089,3.343763 -0.655642,1.538067 -1.259346,3.250428 -1.341553,3.805248 -0.137445,0.927676 -0.102197,1.039734 0.438589,1.394067 0.323423,0.211924 0.951922,0.441122 1.396641,0.509327 1.486611,0.228015 1.846591,0.982473 0.643316,1.348275 -0.864293,0.262755 -4.459917,0.507011 -4.9116576,0.333669 -0.4936347,-0.189427 -0.3951279,-1.619626 0.2050353,-2.976705 0.3521925,-0.79636 0.5802079,-1.847923 0.6868768,-3.167712 0.087831,-1.086594 0.296838,-2.310033 0.4644756,-2.718746 0.1676299,-0.408712 0.3047909,-0.817291 0.3047909,-0.907936 0,-0.09065 -0.4710461,-0.281679 -1.0467639,-0.424505 C 8.6028357,45.017734 7.8272553,44.806518 7.4550324,44.691178 7.0828176,44.575838 6.6053658,44.481479 6.3940251,44.481479 c -0.2113317,0 -0.8678403,-0.208042 -1.4589079,-0.46231 -0.9519228,-0.409512 -1.1262735,-0.42617 -1.5264819,-0.145849 -0.5330655,0.373372 -1.5685686,1.764724 -2.142054,2.878163 -0.2238758,0.434657 -1.60541634,2.060279 -3.07008,3.612481 -2.565126,2.71843 -3.844719,4.376926 -3.8318013,4.966437 0.00333,0.153912 0.3018015,0.670626 0.6631722,1.148253 0.4152015,0.548773 0.5799492,0.945509 0.4475844,1.077865 -0.3878982,0.387899 -2.2865616,0.386058 -3.0416193,-0.0033 z M 11.204401,39.391159 c 0.598973,-0.3534 0.783893,-0.606827 0.783893,-1.074309 0,-1.125665 -0.265162,-2.019084 -0.565098,-1.903994 -0.156651,0.06014 -0.938104,8.33e-4 -1.7365727,-0.131274 -0.7984768,-0.132306 -1.5060181,-0.186311 -1.5723247,-0.120004 -0.066303,0.0663 -0.2595573,0.647481 -0.429444,1.291505 -0.2762145,1.047088 -0.271134,1.212661 0.04806,1.565394 0.1963395,0.216946 0.5836716,0.394454 0.8607528,0.394454 0.2770731,0 0.5650569,0.09916 0.6399594,0.220368 0.2241175,0.36262 1.1355692,0.250637 1.9707512,-0.24214 z m 1.664736,-4.991682 c -4.42e-4,-0.0909 -0.342439,-0.17251 -0.760189,-0.181347 -0.417749,-0.0088 -0.709106,0.06555 -0.647463,0.16528 0.140152,0.226766 1.408535,0.241242 1.407652,0.01607 z m 0.254159,-0.954321 c 1.033072,-0.552879 1.367348,-2.720028 0.639593,-4.146554 -0.568055,-1.113471 -1.476,-1.510723 -2.382037,-1.042192 -0.870224,0.450008 -1.233426,1.399248 -1.109091,2.898578 0.160991,1.941383 1.497539,3.014808 2.851535,2.290168 z"
       style="fill:#000000;stroke-width:0.220371"
       id="path9839" />
    <path
       d="m 168.7863,59.271128 c -0.21306,-0.213067 -0.54855,-0.449237 -0.74555,-0.524835 -0.4249,-0.163051 -0.78554,-1.009409 -0.89803,-2.107546 -0.0965,-0.941789 -1.09584,-2.924291 -2.02869,-4.024449 -0.50929,-0.600631 -0.69249,-1.052778 -0.77344,-1.908965 -0.17052,-1.803466 -1.69448,-4.153148 -2.49453,-3.846142 -0.17965,0.06894 -0.51658,-0.372197 -0.94376,-1.235623 -0.3654,-0.738551 -0.76153,-1.438276 -0.88029,-1.554934 -0.30077,-0.295454 -1.30333,0.938646 -1.91746,2.360295 -0.26989,0.624753 -0.66317,1.192598 -0.87396,1.261877 -0.2108,0.06926 -0.53768,0.449783 -0.72642,0.845565 -0.323,0.677311 -0.31967,0.745565 0.0565,1.16122 0.32005,0.353663 0.42637,0.914308 0.53382,2.815064 0.11176,1.977092 0.24603,2.650643 0.80401,4.033308 0.3684,0.91292 0.66984,1.792122 0.66984,1.953778 0,0.366193 -1.88609,0.947721 -3.06103,0.943777 -1.91376,-0.0064 -2.33677,-0.497218 -1.0718,-1.243568 1.41978,-0.837692 1.50311,-2.094086 0.33438,-5.041361 -0.97082,-2.448198 -1.44513,-4.900107 -1.11434,-5.760535 0.12095,-0.314613 0.28188,-0.906098 0.35763,-1.314402 0.25961,-1.399436 0.91082,-3.288087 1.48518,-4.307381 0.31604,-0.560853 0.61778,-1.372162 0.67055,-1.802913 0.0527,-0.430759 0.17196,-1.075153 0.26489,-1.431991 0.12022,-0.461543 0.0501,-0.967369 -0.24278,-1.752608 -0.46211,-1.238774 -0.68775,-1.262054 -0.90337,-0.0932 -0.0809,0.438768 -0.47354,1.415036 -0.87247,2.169508 -0.39891,0.754463 -0.72531,1.530587 -0.72531,1.72471 0,0.426703 -1.30365,1.463481 -1.84178,1.464748 -0.53889,0.0016 -2.114,1.084845 -2.81565,1.936983 -0.32309,0.392399 -0.92486,1.38159 -1.33726,2.198199 -0.86233,1.707548 -1.36937,2.2416 -2.70171,2.845624 -3.01568,1.367183 -4.88218,-1.028505 -2.8634,-3.675251 0.7187,-0.94227 2.46094,-1.821713 3.60892,-1.821713 0.48089,0 1.35972,-0.144147 1.95298,-0.320321 1.14837,-0.341029 3.58301,-1.994071 3.83297,-2.602463 0.0824,-0.200689 0.40104,-0.794394 0.70797,-1.319365 0.30693,-0.524963 0.61785,-1.426322 0.69091,-2.003009 0.0802,-0.632682 0.31182,-1.23903 0.5841,-1.528856 0.38791,-0.412914 0.4291,-0.622974 0.29348,-1.496758 -0.3405,-2.193773 -0.30387,-2.308747 1.15676,-3.631495 l 1.34163,-1.214972 -0.57176,-0.905715 c -0.31446,-0.498146 -0.66001,-1.137875 -0.7679,-1.421624 -0.11979,-0.315087 -0.31141,-0.471677 -0.49225,-0.402276 -0.20225,0.0776 -0.33955,-0.103535 -0.43312,-0.571419 -0.16233,-0.811631 0.34172,-1.466575 1.64165,-2.133072 0.98387,-0.504455 1.5353,-0.400848 2.34065,0.439762 0.54072,0.564381 0.60956,0.798475 0.66109,2.247877 0.0317,0.889849 0.12227,1.682649 0.2014,1.761789 0.0791,0.07913 0.7629,0.112048 1.51946,0.07311 l 1.37559,-0.0707 1.10124,1.169871 c 1.8824,1.999729 3.39002,3.699292 3.57548,4.030693 0.0978,0.174715 0.12108,0.465407 0.0517,0.645974 -0.12942,0.337252 -0.32796,0.424033 -1.51852,0.663651 -0.46606,0.09379 -0.68935,0.260436 -0.68935,0.514444 0,0.206646 -0.10989,0.690939 -0.24419,1.076212 -0.22585,0.647858 -0.26535,0.671571 -0.52571,0.31552 -0.15483,-0.211744 -0.2281,-0.597762 -0.16283,-0.857815 0.0652,-0.26006 0.0155,-0.536602 -0.11062,-0.614549 -0.14396,-0.08897 -0.22929,0.08472 -0.22929,0.466747 0,0.68511 0.76455,3.962832 1.07606,4.613207 0.44189,0.922572 1.07196,3.484527 1.2697,5.162757 0.2019,1.713608 0.48939,2.531307 1.27963,3.639698 0.20793,0.291646 0.68492,1.675648 1.05996,3.075556 0.84903,3.16908 0.98059,3.429613 2.41874,4.789759 0.64245,0.607598 1.16809,1.276364 1.16809,1.486144 0,0.914122 -1.78347,1.379393 -2.50846,0.654407 z M 145.54044,48.100313 c 0.41898,-0.319575 0.94421,-0.880196 1.16715,-1.245828 1.19982,-1.967656 -0.5225,-3.404865 -2.73008,-2.278157 -1.92166,0.980781 -2.69318,3.236812 -1.38201,4.041195 0.62596,0.384014 2.10361,0.124499 2.94494,-0.51721 z m 2.6466,-3.766545 c 0.55158,-0.661173 0.50897,-0.826605 -0.17104,-0.664068 -0.86,0.205564 -0.91803,0.272102 -0.63399,0.726927 0.3223,0.516064 0.32206,0.516088 0.80503,-0.06285 z M 163.7218,33.186956 c -1.01469,-0.759025 -1.12343,-0.745773 -1.12343,0.136932 v 0.830029 l 0.75224,-0.340965 c 0.69494,-0.314982 0.72321,-0.362665 0.37119,-0.625996 z"
       style="fill:#000000;stroke-width:0.212107"
       id="path10588"
       sodipodi:nodetypes="ssssssssscscssssssssscscssscsssssssssssscssscsscsccssssssscssssssssssssssssssssssccs" />
    <path
       d="m -104.0059,60.39299 c -0.22854,-0.275379 -0.19693,-0.428909 0.18743,-0.910462 1.1329,-1.419381 1.46729,-2.428727 1.75326,-5.292201 0.16251,-1.627151 0.42805,-3.096651 0.63874,-3.534732 0.70653,-1.469071 1.16188,-4.691675 1.10485,-7.819247 -0.011,-0.604065 0.26894,-2.096584 0.642023,-3.422852 0.557251,-1.98093 0.640717,-2.575967 0.529387,-3.773887 -0.146385,-1.575016 0.07461,-2.496327 0.84942,-3.541145 l 0.496314,-0.669259 -0.346491,-1.887016 -0.346491,-1.887016 0.72297,-0.603554 c 1.073952,-0.896576 2.30679,-0.76808 3.24621,0.338354 0.286254,0.337148 0.350235,0.658199 0.254178,1.275478 -0.119628,0.76872 -0.09718,0.815016 0.329382,0.679631 0.313623,-0.09954 0.825543,0.06226 1.625922,0.513997 0.642492,0.362603 1.35675,0.659276 1.587231,0.659276 1.076472,0 0.564696,-0.996182 -0.894339,-1.740837 -2.013291,-1.027532 -2.744838,-4.114224 -1.293795,-5.459002 1.150551,-1.066299 3.16458,-0.398189 4.045302,1.341944 0.354375,0.700181 0.479871,1.475013 0.596412,3.682643 0.157689,2.986892 0.672075,4.830437 1.413443,5.065736 0.516604,0.163967 0.436325,1.298901 -0.16008,2.263271 -0.570164,0.921926 -1.619789,1.536387 -4.195184,2.455925 -1.80144,0.643195 -1.96056,0.747327 -2.127699,1.392337 -0.224487,0.866302 0.140022,1.838152 0.74916,1.997448 0.281448,0.0736 0.394524,0.22993 0.315423,0.436081 -0.06786,0.176744 0.129024,0.688603 0.437454,1.137461 0.30843,0.448867 0.887256,1.584264 1.286298,2.523103 0.399033,0.938849 0.829107,1.831812 0.95571,1.984363 0.253989,0.30604 0.281898,0.547873 0.562392,4.872871 l 0.194193,2.994349 1.422088,1.321047 c 0.782144,0.726576 1.422085,1.489692 1.422085,1.695803 0,0.339933 -0.179496,0.361212 -1.931195,0.228975 -1.062162,-0.08015 -2.063556,-0.19658 -2.22534,-0.258658 -0.39087,-0.149992 -0.581256,-1.180049 -0.360405,-1.950081 0.201906,-0.704027 -0.238851,-3.180866 -0.73773,-4.145567 -0.173367,-0.33526 -0.315207,-1.090078 -0.315207,-1.677383 0,-0.587304 -0.09043,-1.305662 -0.200952,-1.596351 -0.221049,-0.58141 -1.27107,-1.641628 -1.625832,-1.641628 -0.123462,0 -0.699228,-0.482007 -1.279494,-1.071124 -0.580266,-0.589127 -1.119753,-1.071134 -1.198863,-1.071134 -0.07911,0 -0.359037,0.530215 -0.622062,1.178245 -0.38439,0.947099 -0.574686,1.178244 -0.969966,1.178244 -0.410877,0 -0.568125,0.220207 -0.95607,1.338908 -0.255366,0.736406 -0.555804,1.998783 -0.667629,2.80529 -0.111825,0.806507 -0.403119,1.858006 -0.647314,2.336668 -0.738719,1.448003 -1.086339,2.933583 -1.009029,4.312157 0.0661,1.17813 0.0276,1.317281 -0.42744,1.545689 -0.27502,0.13805 -0.60761,0.358564 -0.73907,0.490031 -0.35504,0.355033 -1.77026,0.292591 -2.0896,-0.09219 z m 14.147128,-24.358835 c 0.648027,-0.23257 1.298736,-0.574973 1.44603,-0.760898 0.370512,-0.467732 0.334737,-1.697107 -0.08523,-2.929673 -0.319347,-0.93722 -0.379908,-0.999265 -0.634959,-0.650467 -0.15507,0.21207 -0.316044,0.487909 -0.357732,0.612988 -0.04167,0.125078 -0.503082,0.24159 -1.025307,0.258917 -1.629018,0.05409 -1.84572,0.211041 -2.00574,1.45291 -0.07839,0.608461 -0.198954,1.470981 -0.267894,1.916723 l -0.125352,0.810433 0.938961,-0.144032 c 0.516447,-0.07918 1.469187,-0.33433 2.117223,-0.566901 z m 0.642681,-6.801156 c 0.585999,-0.586001 0.541908,-0.645366 -0.267786,-0.360596 -0.9234,0.32476 -0.949797,0.351171 -0.582912,0.583191 0.408186,0.258148 0.3564,0.271694 0.850698,-0.222595 z m -0.219681,-1.065684 c 0.946296,-0.946289 0.804789,-2.592848 -0.330849,-3.849865 -0.844848,-0.93514 -1.490085,-1.134052 -2.415933,-0.744762 -1.389609,0.584293 -1.275588,2.925948 0.207738,4.266046 0.960147,0.867436 1.881018,0.986603 2.539044,0.328581 z"
       style="fill:#000000;stroke-width:0.214226"
       id="path12063" />
    <path
       d="m 97.046595,58.168816 c -0.75172,-0.192629 -0.994666,-0.530219 -0.994666,-1.382153 0,-0.626551 0.17146,-0.998567 0.726064,-1.575443 1.204269,-1.252573 2.262919,-2.683632 2.822226,-3.814929 0.537471,-1.087195 1.617121,-2.200881 2.542191,-2.622379 0.71464,-0.32561 0.99812,-1.710128 1.08209,-5.284909 0.0382,-1.62703 0.1446,-3.963448 0.23645,-5.192036 0.19115,-2.557022 0,-2.951244 -0.90869,-1.871637 -0.71898,0.854466 -1.28098,0.630375 -1.66928,-0.665594 -0.35786,-1.194453 -0.895439,-1.528493 -2.459821,-1.528493 -2.643899,0 -3.872438,-1.545735 -2.371447,-2.98377 0.898885,-0.861191 2.835843,-1.030052 3.931034,-0.342685 0.736994,0.462559 0.797214,0.556108 1.021604,1.587022 0.0705,0.323855 0.31931,0.631829 0.56163,0.695204 0.35109,0.09181 0.50743,-0.07577 0.81021,-0.868569 0.50134,-1.312806 1.14419,-1.770318 2.74906,-1.956591 0.9545,-0.110774 1.27573,-0.226438 1.13369,-0.408206 -0.33924,-0.434146 -0.48033,-1.664489 -0.25795,-2.249402 0.32234,-0.8478 1.176,-1.663294 1.77929,-1.699735 2.23824,-0.135211 2.78798,0.318099 2.73818,2.257848 -0.0188,0.734744 -0.0986,1.40024 -0.17727,1.478877 -0.30435,0.304358 -0.11563,0.80161 0.53489,1.409288 0.63156,0.58995 0.66747,0.705496 0.52587,1.69119 -0.0836,0.581887 -0.4275,1.903441 -0.76427,2.936777 -1.22604,3.76191 -1.12847,4.569376 0.77441,6.410037 0.56556,0.547068 1.38467,1.641189 1.82025,2.431396 0.43557,0.790198 0.97096,1.585926 1.18976,1.76828 0.46303,0.385893 0.97225,2.658361 1.29441,5.776448 0.121,1.171154 0.31087,2.364747 0.42192,2.652429 0.26498,0.686524 1.02059,1.355955 2.19731,1.946732 0.52463,0.263389 0.91463,0.597879 0.86666,0.743316 -0.15695,0.475842 -4.86738,0.809671 -5.14253,0.364448 -0.0787,-0.127342 -0.0249,-0.724134 0.11951,-1.326215 0.3063,-1.276725 0.0717,-2.65562 -0.79239,-4.658901 -0.29499,-0.683835 -0.53633,-1.640213 -0.53633,-2.125286 0,-1.276683 -0.71913,-2.131375 -1.66426,-1.978002 -0.62097,0.100767 -0.83409,-0.01077 -1.6786,-0.878535 -0.87467,-0.898718 -2.12628,-1.764671 -2.28751,-1.582651 -0.0349,0.03935 -0.32569,0.593759 -0.64628,1.231996 -0.32061,0.638246 -0.6656,1.160436 -0.76666,1.160436 -0.10106,0 -0.36279,0.397046 -0.58162,0.88231 -0.23896,0.52996 -0.84819,1.2228 -1.52554,1.734923 -0.62025,0.468933 -1.88338,1.591992 -2.807,2.495681 -1.80009,1.761255 -2.520423,3.178346 -2.371536,4.665393 0.0635,0.633751 0.005,0.725037 -0.480403,0.755136 -0.303923,0.0188 -0.751519,-0.0167 -0.994656,-0.07903 z M 100.17885,33.07826 c 0.71003,-0.710016 0.55113,-1.326967 -0.466101,-1.809667 -1.848722,-0.877282 -4.210528,0.03166 -3.761169,1.447433 0.374414,1.179708 3.170233,1.41927 4.22727,0.362234 z m 0.83695,0.505147 c 0.22146,-0.358332 -0.25978,-0.467228 -0.54517,-0.123357 -0.22209,0.267608 -0.20856,0.329119 0.0724,0.329119 0.19007,0 0.40281,-0.09259 0.47275,-0.205762 z"
       style="fill:#000000;stroke-width:0.221035"
       id="path12812"
       sodipodi:nodetypes="csccscsccscsccccssccccccsssccssscssscccsccscccccccccsscc" />
    <path
       d="m 54.313031,57.891061 c -0.270191,-0.171195 -0.263324,-0.461835 0.0427,-1.80347 0.357628,-1.567891 0.352507,-1.639625 -0.260835,-3.641722 -0.521894,-1.703623 -0.633272,-2.553053 -0.671628,-5.121863 -0.03161,-2.119788 0.06286,-3.466714 0.303237,-4.32182 0.192075,-0.683248 0.279342,-1.462359 0.193964,-1.731359 -0.08801,-0.277229 0.01397,-0.845849 0.235587,-1.312689 0.333749,-0.703295 0.350662,-1.021324 0.115953,-2.177286 -0.319109,-1.571436 -0.923006,-3.130348 -1.212643,-3.130348 -0.110492,0 -0.414105,0.213195 -0.67468,0.47377 -0.655548,0.655547 -1.078078,0.605605 -3.726223,-0.440429 -1.272944,-0.502822 -2.605939,-0.98414 -2.96226,-1.069607 -0.758519,-0.181948 -1.087407,-1.086602 -0.736458,-2.025833 0.125283,-0.335316 0.183658,-1.062714 0.129714,-1.616436 -0.08174,-0.839572 -0.182449,-1.007382 -0.60617,-1.0104 -0.368909,-0.0027 -0.421491,-0.05855 -0.192002,-0.204027 0.237037,-0.150253 0.177766,-0.24171 -0.236884,-0.365507 -0.517149,-0.154407 -0.523407,-0.176897 -0.09655,-0.346777 0.396924,-0.157971 0.406449,-0.200847 0.07297,-0.328808 -0.210894,-0.08094 -0.381766,-0.339426 -0.37968,-0.574422 0.0027,-0.234995 -0.06259,-1.013569 -0.143646,-1.730151 -0.182431,-1.612327 0.191546,-2.454128 1.138906,-2.563663 0.36317,-0.04199 0.830628,0.06465 1.038845,0.236886 1.009997,0.835713 1.616526,3.806936 1.008914,4.942288 -0.272098,0.508383 -0.438772,0.442604 2.724731,1.075231 1.039722,0.20792 2.083096,0.481165 2.318603,0.607208 0.53423,0.285922 1.357848,0.04513 1.357848,-0.396932 0,-0.182065 -0.218316,-0.447878 -0.485177,-0.590682 -0.325907,-0.174427 -0.43938,-0.40388 -0.345685,-0.699069 0.07673,-0.241675 0.02848,-0.507971 -0.107054,-0.591765 -0.463114,-0.286226 -0.266564,-1.547227 0.334915,-2.148715 0.670132,-0.670124 2.11557,-0.794958 2.864419,-0.247378 0.383261,0.280254 0.457341,0.632403 0.45983,2.185809 l 0.0027,1.851736 0.837154,0.137459 c 0.460422,0.07556 0.9756,0.223026 1.144816,0.327608 0.450017,0.278115 1.136864,2.00644 1.780281,4.479665 0.310865,1.194989 0.906641,2.865602 1.323916,3.71248 0.762493,1.547442 1.230112,3.902772 1.583246,7.974554 0.129267,1.490437 0.22632,1.755534 0.797196,2.177607 0.357513,0.264318 1.038317,1.174908 1.512901,2.02354 0.474577,0.848634 0.968115,1.608011 1.096737,1.687507 0.26387,0.163075 1.91363,2.625458 2.16689,3.234198 0.238712,0.573822 -0.219434,2.016458 -0.6988,2.200412 -0.54185,0.20793 -1.381673,-0.772656 -1.711824,-1.998776 -0.138291,-0.513576 -0.352247,-0.996075 -0.475453,-1.072222 -0.123205,-0.0761 -0.336409,-0.555872 -0.473797,-1.066054 -0.197758,-0.734452 -0.619026,-1.229343 -2.023065,-2.37662 -1.955791,-1.598136 -2.195881,-1.957035 -2.926367,-4.374625 -0.551475,-1.82502 -1.284691,-2.988978 -1.641496,-2.60577 -0.121308,0.130287 -0.40962,0.819105 -0.640703,1.530709 -0.231092,0.711595 -0.625814,1.460363 -0.877203,1.663915 -0.577976,0.468013 -0.860657,1.770933 -0.617469,2.846021 0.103141,0.456007 0.12633,1.468698 0.05157,2.250433 -0.107663,1.124993 -0.02713,1.709917 0.386037,2.805525 0.381578,1.011797 0.451485,1.454732 0.25984,1.646367 -0.144191,0.144201 -0.26216,0.509995 -0.26216,0.812883 0,0.773542 -1.336996,1.284074 -2.098756,0.801414 z m -2.94165,-25.390419 c 0.267048,-0.707521 0.24975,-0.738919 -0.599509,-1.088714 -0.480977,-0.19809 -1.585251,-0.669756 -2.453966,-1.04812 -2.096277,-0.913043 -2.329178,-0.896659 -2.329178,0.163809 0,1.772822 1.263079,2.610684 4.034385,2.676186 0.990263,0.02336 1.094541,-0.03098 1.348268,-0.703161 z m -5.002928,-5.324967 c 0.534446,-2.129377 -1.569736,-4.92123 -2.287052,-3.034513 -0.261506,0.687761 -0.08506,2.455148 0.245059,2.455148 0.105174,0 0.442246,0.264658 0.749064,0.58813 0.714407,0.753165 1.10236,0.750532 1.292929,-0.0089 z"
       style="fill:#000000;stroke-width:0.236887"
       id="path15013"
       sodipodi:nodetypes="csscssccsssssccssssccscsssssscsscccsssssssssssssssssscsssccsssssscssscc" />
    <path
       id="path24463"
       style="fill:#000000;fill-opacity:1;stroke-width:0.123544"
       d="m 361.19391,32.319212 c -0.43707,-0.0018 -0.8788,0.182242 -1.2673,0.529892 -0.45878,-0.0075 -1.51048,0.500913 -1.98611,0.883149 -0.27122,0.217954 -0.62558,0.3817 -0.84238,0.389451 -0.20583,0.0073 -0.37449,0.0255 -0.37449,0.0403 -1.6e-4,0.01481 0.15241,0.110007 0.33927,0.21138 0.18688,0.101377 0.26779,0.186373 0.17976,0.189175 -0.088,0.0027 -0.29651,0.141361 -0.46329,0.308137 -0.22876,0.228754 -0.30278,0.433605 -0.30138,0.833926 0.002,0.402865 0.099,0.754927 0.17132,0.796279 -0.1749,0.03604 -0.33785,0.07944 -0.46908,0.127405 -0.74359,0.271791 -3.45017,1.779196 -4.67924,2.606014 -0.47564,0.319979 -0.976,0.615229 -1.1119,0.656087 -1.58488,0.476296 -2.06606,0.808672 -2.60046,1.796701 -0.65789,1.216362 -0.49656,1.987754 -0.43434,3.202015 0.0337,0.657492 -0.69928,2.138972 -0.69928,2.298838 0,0.429374 1.81872,-0.150915 1.82469,-0.09411 0.0337,0.320736 0.40898,1.116974 0.37933,1.564815 -0.008,0.118192 -0.29884,0.529215 -0.64668,0.91331 -0.75336,0.831894 -1.00549,1.364148 -1.34137,2.833796 -0.13869,0.606824 -0.33223,1.298039 -0.43024,1.53586 -0.098,0.237822 -0.29317,0.867217 -0.43361,1.3988 -0.26436,1.000631 -0.66505,1.906325 -0.93889,2.121728 -0.0866,0.06818 -0.25673,0.610051 -0.37786,1.204315 -0.26262,1.288411 -0.2267,1.354729 0.7929,1.463952 1.19336,0.127838 3.02792,0.117257 3.52318,-0.02027 0.41242,-0.114531 0.46597,-0.171786 0.4324,-0.462563 -0.0281,-0.24321 -0.20316,-0.437718 -0.65584,-0.727995 -0.97928,-0.627969 -1.31644,-0.920389 -1.25258,-1.086806 0.0327,-0.08515 -0.005,-0.225284 -0.0852,-0.311513 -0.1144,-0.123893 -0.093,-0.140157 0.1023,-0.07673 0.22957,0.07457 0.23153,0.06835 0.0307,-0.08808 -0.50131,-0.39036 -0.0561,-2.04763 0.9512,-3.542007 0.20742,-0.307698 0.49838,-0.835848 0.64668,-1.173669 0.1483,-0.337821 0.40364,-0.919875 0.56729,-1.293594 0.16364,-0.373719 0.55868,-0.984811 0.87807,-1.357778 0.79171,-0.924474 0.99157,-1.634473 0.88774,-3.174512 0.23229,-0.201877 0.55296,-0.334456 0.96977,-0.152018 0.24862,0.108821 1.23911,-0.26947 1.31121,-0.111239 0.11115,0.243925 0.70582,0.15664 1.0494,0.09121 0.22289,-0.04245 1.25199,0.328272 1.27599,0.30838 0.11629,-0.09645 2.47996,1.210983 2.53193,1.40049 0.0325,0.118649 0.094,0.422668 0.13657,0.675632 0.0426,0.252964 0.14609,0.503141 0.22972,0.555947 0.19461,0.122884 0.45557,0.714463 0.45557,1.032514 0,0.134959 0.13705,0.515748 0.30451,0.846229 0.62451,1.232424 0.84283,3.033454 0.65174,5.376106 -0.0265,0.324573 0.017,0.373654 0.40273,0.454845 0.53464,0.112565 1.08469,0.132681 3.23436,0.118719 1.36018,-0.0088 -0.84424,-2.069169 -0.94034,-2.319593 -0.0358,-0.09347 0.0143,-0.122105 0.13368,-0.07625 0.16617,0.06377 0.16959,0.03863 0.0258,-0.191589 -0.091,-0.145756 -0.28954,-0.264942 -0.44132,-0.264942 -0.36574,0 -0.62841,-0.522967 -0.79291,-1.579295 -0.15184,-0.975014 -0.14017,-2.387052 0.021,-2.550271 0.069,-0.0699 0.36701,0.01415 0.76636,0.216203 0.35936,0.181821 0.68867,0.330578 0.73185,0.330578 0.0432,0 0.26872,0.19005 0.50118,0.42251 1.29474,1.294742 3.35047,0.09034 3.98141,-2.332621 0.88908,-3.414323 -1.5371,-4.347883 -3.7488,-1.442473 -0.84609,1.111469 -1.14525,1.249543 -1.85509,0.856604 -0.63009,-0.348784 -0.64603,-0.373256 -0.69446,-1.073534 -0.0532,-0.769692 -0.0666,-0.792447 -0.76708,-1.300831 l -0.56222,-0.408034 0.0254,-1.047956 c 0.0168,-0.695446 0.12246,-1.355823 0.31441,-1.962956 0.27145,-0.858625 0.31265,-0.917278 0.67201,-0.953605 0.2107,-0.0213 0.43611,-0.138074 0.50117,-0.259637 0.159,-0.297095 0.49961,-1.954335 0.49973,-2.431552 6e-5,-0.21044 0.11143,-0.510737 0.24733,-0.667429 0.1359,-0.15669 0.24709,-0.446828 0.24709,-0.644749 0,-0.197912 0.0542,-0.461676 0.12065,-0.585868 0.20014,-0.373976 0.37113,-2.364929 0.24974,-2.908114 -0.29404,-1.31581 -0.3122,-1.358325 -0.60541,-1.40049 -0.15818,-0.02274 -0.46189,-0.147595 -0.67491,-0.277492 -0.26231,-0.15995 -0.54257,-0.237985 -0.825,-0.239129 z m -1.94752,1.425588 c -0.12033,0.253871 -0.14743,0.492369 -0.14743,0.972671 0,0.726889 -0.0382,0.85095 -0.38341,1.244127 -0.34487,0.392775 -0.42801,0.433156 -1.05882,0.436027 0.0441,-0.208236 0.0823,-0.455102 0.11461,-0.740541 0.0436,-0.385954 0.14966,-0.760033 0.23551,-0.831273 0.12332,-0.102339 0.1539,0.04904 0.14647,0.720514 -0.009,0.768372 0.0112,0.838926 0.20414,0.735719 0.33503,-0.179263 0.49214,-0.580078 0.59504,-1.517524 0.0647,-0.589202 0.13588,-0.849282 0.29389,-1.01972 z m -2.23586,1.671464 c 0.0537,-0.0086 0.0782,0.175289 0.12837,0.665743 0.0118,0.114797 0.0207,0.229949 0.0266,0.339988 -0.16058,0.01663 -0.32545,0.04097 -0.48236,0.07215 0.0235,-0.02744 0.0402,-0.108447 0.0427,-0.25867 0.004,-0.203851 0.0791,-0.502506 0.16843,-0.663567 0.052,-0.0937 0.0882,-0.151106 0.1163,-0.15564 z m 2.07878,6.614447 c 0.006,0.0018 0.01,0.0065 0.01,0.01447 0,0.06395 -0.13426,0.510822 -0.29825,0.992941 -0.16398,0.482119 -0.26598,0.908888 -0.22657,0.948297 0.0394,0.03943 -0.007,0.06839 -0.10328,0.06418 -0.19887,-0.0085 -1.10151,-0.601636 -1.10151,-0.72389 0,-0.04411 0.17629,-0.184417 0.39186,-0.311757 0.21556,-0.127339 0.60473,-0.423779 0.86481,-0.658743 0.22757,-0.205593 0.419,-0.338363 0.46328,-0.325508 z m 7.60618,4.273136 c 0.34314,-0.01159 0.64861,0.112601 0.85395,0.389454 0.20731,0.279496 0.25645,0.515108 0.24491,1.17367 -0.0268,1.527385 -0.84688,2.988665 -1.96222,3.496639 -0.73524,0.334857 -1.25114,0.241315 -1.58702,-0.287868 -0.24443,-0.385098 -0.3827,-1.286393 -0.2133,-1.39108 0.0727,-0.04496 0.13246,-0.275812 0.13246,-0.512999 0,-0.47793 0.21268,-0.953106 0.78784,-1.759299 0.49449,-0.693083 1.17147,-1.08921 1.74338,-1.108517 z m -3.24231,3.115388 c 0.15084,0.01207 0.21692,0.17965 0.21692,0.514444 0,0.501125 -0.11401,0.527759 -0.57187,0.133924 l -0.33854,-0.291006 0.32623,-0.213788 c 0.15571,-0.102022 0.27674,-0.150816 0.36726,-0.143574 z" />
    <path
       d="m 258.49527,60.941004 c -0.22796,-0.274673 -0.0643,-2.114439 0.20823,-2.340605 0.2079,-0.172544 0.19265,-0.683722 -0.0961,-3.218492 -0.21398,-1.878752 -0.1048,-3.382822 0.33687,-4.6405 0.23451,-0.667786 0.33439,-1.160121 0.27963,-1.378329 -0.0945,-0.376532 -1.48067,-1.80045 -1.68607,-1.731981 -0.0716,0.02387 -0.23178,0.343668 -0.35603,0.710698 -0.12426,0.36703 -0.42427,0.903579 -0.66669,1.192337 -0.52758,0.628395 -1.81046,3.37661 -2.09957,4.497716 -0.11344,0.439881 -0.21821,1.098286 -0.23283,1.463119 -0.0146,0.364839 -0.14226,0.902141 -0.28364,1.194008 -0.42729,0.882153 -0.33716,1.224022 0.38144,1.446763 0.35799,0.110964 0.44396,0.486749 0.15902,0.695104 -0.25364,0.185465 -1.20179,0.243404 -1.58387,0.09678 -0.11901,-0.04568 -0.39431,-0.435514 -0.61179,-0.866334 -0.21747,-0.430821 -0.60259,-1.054733 -0.85582,-1.386478 -0.74584,-0.977112 -0.63248,-1.279328 0.66727,-1.778904 0.69165,-0.265843 0.99609,-0.894037 1.15629,-2.385958 0.21484,-2.000733 0.33372,-2.395521 1.02926,-3.418208 0.76057,-1.118298 0.86447,-1.527522 0.73596,-2.898846 l -0.0941,-1.004506 -0.42903,0.08049 c -0.29686,0.05569 -0.8141,-0.04628 -1.67902,-0.331077 -1.81118,-0.59634 -1.9741,-0.807708 -0.99081,-1.285427 0.74093,-0.359969 0.97693,-0.717893 1.13967,-1.728386 0.0709,-0.440267 0.30511,-1.135431 0.52045,-1.54481 0.61184,-1.163115 0.6308,-1.505891 0.13866,-2.505583 -0.29442,-0.598059 -0.40978,-1.003919 -0.38082,-1.339941 0.0316,-0.367425 -0.0461,-0.591841 -0.32703,-0.943923 -0.69036,-0.865186 -0.99664,-1.71739 -0.94354,-2.625277 0.0327,-0.559841 0.0155,-0.693033 -0.0544,-0.420962 -0.0926,0.360476 -0.10975,0.329202 -0.18137,-0.331665 -0.0435,-0.401322 -0.15682,-1.072971 -0.25185,-1.492555 -0.13303,-0.587409 -0.13826,-0.892563 -0.0228,-1.326678 0.13257,-0.498211 0.12804,-0.533837 -0.039,-0.306267 -0.24588,0.335084 -0.23951,1.147009 0.0184,2.353985 0.11409,0.533782 0.17238,1.198786 0.12954,1.477781 -0.0502,0.32656 -0.03,0.477703 0.0564,0.424277 0.1885,-0.1165 0.0136,0.337932 -0.2462,0.639586 -0.11579,0.134451 -0.32018,0.303149 -0.45421,0.374877 -0.21997,0.117724 -0.22825,0.101548 -0.085,-0.166085 0.20036,-0.374381 0.0864,-1.416026 -0.21927,-2.004959 -0.12514,-0.241063 -0.22783,-0.695646 -0.22821,-1.010179 l -5e-4,-0.571875 -0.31736,0.317354 c -0.20083,0.200834 -0.35424,0.55695 -0.4178,0.969884 l -0.10044,0.652519 -0.0978,-0.53662 c -0.12998,-0.713042 0.0639,-1.177819 0.76765,-1.840049 0.4358,-0.410097 0.62958,-0.72895 0.79621,-1.310077 0.16287,-0.567988 0.30527,-0.80681 0.54668,-0.916801 0.27722,-0.126308 0.32678,-0.240562 0.32863,-0.757617 0.005,-1.217037 0.9038,-2.134551 2.09251,-2.134551 0.57637,0 1.62485,0.389323 2.04467,0.759221 0.12413,0.109374 0.50039,0.220504 0.83612,0.246959 0.33574,0.02647 0.66798,0.08366 0.73831,0.12713 0.18787,0.116109 0.0137,0.326034 -0.27049,0.326034 -0.26565,0 -0.93263,0.707253 -0.93263,0.988941 0,0.09492 0.0922,0.249101 0.2049,0.342631 0.13677,0.113511 0.17865,0.28954 0.12596,0.529449 l -0.0789,0.359398 1.03824,-0.0067 c 0.88767,-0.0057 1.17243,0.05375 1.96355,0.410056 0.50892,0.229209 1.19397,0.480737 1.52232,0.558953 0.53564,0.127592 0.88336,0.256778 2.34166,0.86999 0.70018,0.294424 1.37302,1.424276 1.37302,2.305588 0,0.191778 0.0826,0.466586 0.18351,0.610685 0.10093,0.144098 0.24752,0.673126 0.32575,1.17562 0.20644,1.325931 -0.16599,2.070776 -1.03536,2.070776 -0.15303,0 -0.3105,0.08408 -0.34992,0.186854 -0.17062,0.444584 -1.40782,0.583417 -1.48854,0.167038 -0.0236,-0.121675 -0.0833,-0.219442 -0.13267,-0.21726 -0.14034,0.0062 -2.05067,1.902669 -2.32988,2.312966 -0.13754,0.202128 -0.56312,0.510812 -0.94572,0.685974 -0.57119,0.2615 -0.7104,0.392231 -0.77809,0.730714 -0.18291,0.914551 -0.0879,1.702533 0.29825,2.472369 0.20939,0.417477 0.42651,0.908303 0.4825,1.090719 0.056,0.182422 0.50336,0.958526 0.99418,1.724681 1.54635,2.413893 1.69223,2.825057 1.40105,3.949021 -0.71698,2.767665 -1.29635,7.82673 -0.91104,7.95533 0.0871,0.02908 0.22396,0.251587 0.30412,0.494475 0.17736,0.537428 0.86386,1.03771 1.93526,1.41031 0.91276,0.317435 1.16162,0.516057 1.04087,0.830749 -0.17183,0.447798 -0.61903,0.537131 -2.91994,0.583297 -1.91753,0.03846 -2.29347,0.01399 -2.43683,-0.15876 z m 0.70652,-23.326621 0.64572,-0.298731 -0.62494,-0.576052 c -0.34371,-0.316823 -0.67398,-0.524902 -0.73391,-0.462395 -0.0599,0.06251 -0.15078,0.456924 -0.2019,0.876488 -0.10844,0.890071 -0.0628,0.913056 0.91503,0.46069 z m -5.38199,-0.401106 c -0.0828,-0.269915 -0.2003,-0.490756 -0.26102,-0.490756 -0.15094,0 -0.1411,0.06774 0.0903,0.621636 0.254,0.607907 0.37011,0.51888 0.17069,-0.13088 z m 6.91918,-0.348854 0.32555,-0.250198 -0.63019,-0.0945 c -0.74346,-0.111491 -0.88079,-0.02828 -0.55233,0.334653 0.29667,0.327829 0.44125,0.329523 0.85697,0.01003 z m 1.20011,-0.8561 c 0,-0.220334 0.40396,-0.342871 1.13842,-0.345333 0.72855,-0.0025 0.92169,-0.348783 0.78857,-1.414171 -0.0923,-0.738797 -0.70441,-2.18702 -1.00215,-2.371026 -0.0784,-0.04844 -0.811,-0.25967 -1.62816,-0.46945 -0.81713,-0.209781 -1.72811,-0.452483 -2.02438,-0.539334 -0.64649,-0.189517 -1.12595,-0.0909 -1.3542,0.278549 -0.18353,0.297058 -0.0903,0.533132 0.57185,1.448725 0.39811,0.55045 0.40818,0.901068 0.0498,1.734127 -0.43981,1.022356 -0.35337,1.187374 0.80689,1.540409 1.15324,0.350904 2.65335,0.428644 2.65335,0.137504 z m -9.45892,-4.692 c -0.0868,-0.640632 -0.6137,-2.055354 -0.61948,-1.663259 -0.002,0.161478 0.11507,0.596515 0.261,0.966754 0.14594,0.370233 0.26534,0.79035 0.26534,0.933581 0,0.143236 0.0361,0.260428 0.0803,0.260428 0.0441,0 0.0499,-0.223879 0.0129,-0.497504 z m 0.70286,-0.88533 c 0,-0.220149 -0.66465,-1.048089 -0.76268,-0.950056 -0.0365,0.0365 0.0903,0.252535 0.28184,0.480115 0.1915,0.227584 0.34818,0.468908 0.34818,0.536274 0,0.06737 0.0298,0.122492 0.0663,0.122492 0.0365,0 0.0663,-0.08497 0.0663,-0.188825 z m -0.31306,-1.267395 c -0.26562,-0.294008 -0.48294,-0.462606 -0.48294,-0.374657 0,0.186509 0.81502,1.060078 0.90504,0.970053 0.0335,-0.03344 -0.15648,-0.301388 -0.4221,-0.595396 z"
       style="fill:#000000;fill-opacity:1;stroke-width:0.132667"
       id="path24403" />
    <path
       d="m 298.58114,58.184125 c 0,-0.310934 0.10056,-0.502214 0.34996,-0.665628 0.19249,-0.126118 0.34997,-0.348054 0.34997,-0.493183 0,-0.145128 0.0787,-0.268305 0.17499,-0.273718 0.0962,-0.0054 0.049,-0.06473 -0.10499,-0.131827 -0.27636,-0.120409 -0.27616,-0.123145 0.015,-0.211232 0.23431,-0.07089 0.29188,-0.194926 0.27997,-0.603106 -0.0137,-0.469575 0.0176,-0.513436 0.36236,-0.508934 0.48354,0.0063 0.50442,-0.08249 0.66678,-2.837217 0.0715,-1.213994 0.25861,-2.805709 0.41572,-3.53714 0.15709,-0.731436 0.28661,-1.506246 0.28781,-1.721801 0.002,-0.215555 0.10248,-0.585847 0.22505,-0.822873 0.12256,-0.237025 0.31853,-0.753123 0.43546,-1.146885 0.11693,-0.393768 0.46241,-1.212746 0.76771,-1.819958 0.37587,-0.747562 0.52874,-1.209005 0.47348,-1.429185 -0.0644,-0.256421 0.024,-0.407962 0.41806,-0.716875 0.68874,-0.539922 1.32672,-1.516876 1.38732,-2.12441 0.0278,-0.278903 -0.0216,-0.838957 -0.10972,-1.24457 -0.12327,-0.566991 -0.20945,-0.718437 -0.37288,-0.655137 -0.69689,0.26994 -1.02739,0.227825 -2.00625,-0.255633 -0.55333,-0.273295 -1.17178,-0.533261 -1.37434,-0.577705 -0.51436,-0.112864 -0.87406,-0.898939 -0.74929,-1.637465 0.0639,-0.378328 0.0343,-0.627729 -0.0928,-0.780826 -0.10268,-0.123721 -0.19076,-0.546753 -0.19573,-0.94007 -0.009,-0.73859 -0.65294,-2.238201 -1.80896,-4.214816 -0.78362,-1.339902 -1.74789,-4.500099 -1.75245,-5.743336 -0.003,-0.649534 0.31419,-1.186049 0.69984,-1.186049 0.87774,0 2.17156,3.272798 2.60101,6.579415 0.33184,2.555055 0.90446,4.479597 1.33281,4.479597 0.0823,0 0.30985,0.125992 0.50561,0.279977 0.22865,0.179853 0.5679,0.279977 0.94868,0.279977 0.55975,0 0.59701,-0.02534 0.66915,-0.454962 0.042,-0.250226 0.12396,-0.575535 0.1821,-0.722901 0.0818,-0.207254 0.0607,-0.242237 -0.0931,-0.154446 -0.16096,0.0919 -0.16548,0.07763 -0.0238,-0.07503 0.30061,-0.323859 0.19154,-0.429809 -0.18707,-0.181736 l -0.36203,0.237221 0.36203,-0.533499 c 0.25248,-0.372054 0.36205,-0.71823 0.36205,-1.143917 0,-0.743854 -0.27346,-0.822783 -0.29607,-0.08545 l -0.0161,0.524955 -0.10083,-0.489961 c -0.0555,-0.269475 -0.311,-0.885935 -0.56788,-1.369906 l -0.46704,-0.879951 0.1424,-1.240676 c 0.17462,-1.52142 0.62114,-2.38834 1.4472,-2.809768 0.48936,-0.249649 0.62288,-0.261882 1.21885,-0.111637 0.80997,0.20419 0.95377,0.305177 1.42326,0.999566 0.78347,1.158758 0.87372,1.393832 0.79162,2.061946 -0.087,0.708331 0.11227,0.994503 1.00787,1.447137 0.54515,0.275517 0.8446,0.700537 0.95161,1.350658 l 0.0794,0.482638 -0.20357,-0.438153 c -0.19622,-0.422348 -0.51645,-0.748128 -0.50624,-0.515023 0.003,0.06229 0.095,0.270739 0.20503,0.463221 0.11002,0.192481 0.20229,0.471014 0.20502,0.618962 0.003,0.147943 0.16994,0.681411 0.37161,1.185488 0.20167,0.504071 0.44972,1.390937 0.55127,1.970805 0.29053,1.659301 0.74956,3.680925 0.92277,4.064047 0.22905,0.506622 0.41658,1.366605 0.47315,2.169806 0.0326,0.462411 0.22185,1.027333 0.55778,1.664702 0.57557,1.092083 0.57932,1.625005 0.0115,1.625005 -0.18223,0 -0.51174,0.0941 -0.73228,0.209117 -0.22054,0.115018 -0.63575,0.209507 -0.92271,0.209984 -0.48524,0.0011 -0.59792,0.09093 -1.60986,1.287648 -0.59846,0.707728 -1.41883,1.660592 -1.82304,2.117474 -0.40422,0.456877 -0.73494,0.948086 -0.73494,1.091569 0,0.161128 0.29623,0.45757 0.77472,0.775266 0.64591,0.428867 0.93725,0.776329 1.75232,2.089955 0.84644,1.364166 1.06245,1.616646 1.6099,1.88166 0.84337,0.40827 1.04319,0.631523 1.03949,1.161361 -0.003,0.489786 -0.31356,0.953325 -0.80698,1.206196 -0.17608,0.09024 -0.46794,0.498246 -0.64857,0.906685 -0.53886,1.218466 -1.75104,1.893374 -2.60098,1.448142 -0.50429,-0.264173 -0.51733,-0.74261 -0.0367,-1.345869 0.22362,-0.28067 0.50751,-0.71504 0.63088,-0.965266 0.21812,-0.442443 0.21592,-0.45502 -0.0799,-0.457104 -0.23938,-0.0016 -0.26091,-0.02958 -0.10094,-0.130748 0.1118,-0.07073 0.24623,-0.102066 0.29871,-0.06963 0.17811,0.110076 0.44056,-0.768208 0.34423,-1.151965 -0.0955,-0.380461 -1.75179,-2.033999 -3.60709,-3.601085 -0.51757,-0.437153 -0.99617,-0.893368 -1.06357,-1.01382 -0.082,-0.146578 -0.15411,0.167688 -0.21795,0.950372 -0.0617,0.756292 -0.26481,1.663871 -0.57504,2.569244 -0.26382,0.769933 -0.5337,1.747801 -0.59972,2.173049 -0.13275,0.854962 0.006,1.220831 0.71011,1.873443 0.20608,0.190985 0.34304,0.429719 0.30435,0.530516 -0.1033,0.269209 -1.2383,0.952498 -1.5822,0.952498 -0.16279,0 -0.54557,0.130092 -0.85062,0.289099 -0.30506,0.159001 -0.90544,0.325298 -1.33419,0.369551 l -0.77955,0.08046 v -0.436322 z m 4.97504,-22.845333 c 0.51557,-0.427883 0.0588,-0.724303 -0.91486,-0.593709 -0.46153,0.0619 -0.5605,0.129605 -0.5605,0.383387 0,0.169509 0.0472,0.356065 0.10499,0.414566 0.14569,0.147588 1.12173,0.0021 1.37037,-0.204244 z m -4.18431,-7.116718 c -0.19368,-2.08393 -1.5841,-5.878433 -2.12062,-5.787224 -0.42857,0.07286 0.0301,2.498072 0.89256,4.719231 0.85865,2.211344 1.37615,2.661406 1.22806,1.067993 z"
       style="fill:#000000;fill-opacity:1;stroke-width:0.139987"
       id="path24436" />
  </g>
</svg>
