<?xml version="1.0" encoding="UTF-8" standalone="no"?>
<!-- Created with Inkscape (http://www.inkscape.org/) -->

<svg
   width="200mm"
   height="50mm"
   viewBox="0 0 200 50"
   version="1.1"
   id="svg16152"
   inkscape:version="1.2.1 (9c6d41e410, 2022-07-14)"
   sodipodi:docname="tennis-servers.svg"
   xml:space="preserve"
   xmlns:inkscape="http://www.inkscape.org/namespaces/inkscape"
   xmlns:sodipodi="http://sodipodi.sourceforge.net/DTD/sodipodi-0.dtd"
   xmlns="http://www.w3.org/2000/svg"
   xmlns:svg="http://www.w3.org/2000/svg"><sodipodi:namedview
     id="namedview16154"
     pagecolor="#505050"
     bordercolor="#eeeeee"
     borderopacity="1"
     inkscape:showpageshadow="0"
     inkscape:pageopacity="0"
     inkscape:pagecheckerboard="0"
     inkscape:deskcolor="#505050"
     inkscape:document-units="mm"
     showgrid="false"
     inkscape:zoom="1.2938725"
     inkscape:cx="139.5037"
     inkscape:cy="368.66075"
     inkscape:window-width="3840"
     inkscape:window-height="2036"
     inkscape:window-x="-12"
     inkscape:window-y="-12"
     inkscape:window-maximized="1"
     inkscape:current-layer="layer1" /><defs
     id="defs16149" /><g
     inkscape:label="Layer 1"
     inkscape:groupmode="layer"
     id="layer1"
     transform="translate(-181.5506,-13.903024)"><g
       id="g20167"><rect
         style="fill:#f14621;fill-opacity:1;stroke-width:1.11456;stop-color:#000000"
         id="rect20151"
         width="50"
         height="50"
         x="231.5506"
         y="13.903024" /><rect
         style="fill:#2db361;stroke-width:1.11456;stop-color:#000000"
         id="rect20153"
         width="50"
         height="50"
         x="181.5506"
         y="13.903024" /><rect
         style="fill:#f14621;fill-opacity:1;stroke-width:1.11456;stop-color:#000000"
         id="rect20169"
         width="50"
         height="50"
         x="331.5506"
         y="13.903024" /><rect
         style="fill:#2db361;stroke-width:1.11456;stop-color:#000000"
         id="rect20171"
         width="50"
         height="50"
         x="281.5506"
         y="13.903024" /></g><path
       d="m 346.34309,60.87711 c -0.38517,-0.385155 -0.17617,-1.050912 0.32987,-1.050912 0.27923,0 0.86868,-0.382779 1.30993,-0.850617 0.92723,-0.983178 0.9208,-1.082619 -0.26049,-4.030938 -0.41979,-1.047753 -0.90328,-2.512242 -1.07439,-3.254418 -0.28601,-1.240425 -0.26732,-1.490436 0.23145,-3.095613 0.59906,-1.927908 1.35781,-3.653946 1.90272,-4.328307 0.94995,-1.175643 1.38096,-7.610895 0.90359,-13.491339 -0.14353,-1.768077 -0.2357,-4.189455 -0.20484,-5.380857 0.0709,-2.735856 -0.24848,-3.993399 -1.14933,-4.525542 -0.43801,-0.258723 -0.67801,-0.597771 -0.67801,-0.957717 0,-0.306477 0.0938,-0.499266 0.20835,-0.428445 0.11461,0.07083 0.20836,0.01278 0.20836,-0.128889 0,-0.14607 0.27134,-0.07992 0.62656,0.152856 0.62341,0.408492 0.62572,0.407628 0.46391,-0.173106 -0.15283,-0.548469 -0.14133,-0.557091 0.19105,-0.143073 0.19452,0.242325 0.46108,0.374193 0.59236,0.293049 0.13951,-0.08622 0.28901,0.274914 0.35983,0.86913 0.0666,0.559143 0.23439,1.927467 0.37278,3.040695 0.13838,1.113237 0.25621,2.506275 0.26182,3.095649 0.0148,1.554012 0.49621,3.147363 1.23068,4.073274 l 0.64115,0.808281 0.0112,-0.793755 c 0.008,-0.58644 0.23001,-1.006263 0.84896,-1.607355 0.96667,-0.938763 1.36446,-0.993537 2.44238,-0.336321 1.41467,0.862515 1.57501,2.468835 0.38729,3.880332 l -0.62123,0.738297 0.85435,0.295767 c 0.46987,0.162672 1.53607,0.677022 2.3693,1.142997 0.83324,0.465975 1.75417,0.847215 2.04653,0.847215 0.79239,0 2.4982,-1.961259 3.00655,-3.456843 0.40905,-1.203408 0.40948,-1.306701 0.01,-2.353239 -0.31105,-0.814491 -0.78383,-1.381986 -1.84756,-2.217699 -1.50749,-1.184364 -2.10331,-2.039769 -2.10331,-3.019707 0,-0.687456 0.78962,-1.335015 1.62792,-1.335015 0.88078,0 2.33505,0.933633 2.80049,1.797894 0.37653,0.699165 0.38734,0.916623 0.10428,2.096496 -0.33642,1.402425 -0.12673,2.418903 0.62831,3.045546 0.191,0.158517 0.50135,0.586134 0.68967,0.950283 0.31165,0.602712 0.30036,0.701217 -0.12607,1.098495 -0.25765,0.24003 -0.69568,0.967887 -0.97343,1.61745 -0.27775,0.649566 -0.78205,1.744893 -1.12067,2.434059 l -0.61567,1.253043 -2.68672,-0.0414 c -1.83963,-0.02835 -2.79868,0.05148 -3.04183,0.253269 -0.19529,0.162072 -0.58702,0.991719 -0.87054,1.843641 -0.41864,1.258065 -0.4882,1.869543 -0.37035,3.256182 0.0798,0.938988 0.21176,3.314601 0.29327,5.279139 l 0.14816,3.571866 0.77841,0.865224 c 0.51388,0.571194 0.87059,1.295073 1.04968,2.130084 0.14919,0.695682 0.65005,2.276244 1.11304,3.512367 0.6193,1.653444 0.7716,2.317797 0.57622,2.513367 -0.14619,0.146358 -1.0339,0.265842 -1.97504,0.265842 -1.4045,0 -1.72345,-0.07074 -1.78784,-0.396378 -0.0465,-0.235242 0.1218,-0.4599 0.41403,-0.552654 0.27082,-0.08595 0.6473,-0.455796 0.8366,-0.821889 0.45904,-0.887697 0.16143,-1.930518 -1.06713,-3.739113 -0.52142,-0.767574 -0.94923,-1.502748 -0.95074,-1.633725 -0.003,-0.130959 -0.52782,-0.914679 -1.16969,-1.741572 -0.64185,-0.826893 -1.40513,-2.090196 -1.69619,-2.807325 -0.29106,-0.717138 -0.64899,-1.265193 -0.79541,-1.217898 -0.14639,0.04725 -0.70544,0.721233 -1.24227,1.497636 -0.57643,0.833643 -1.13708,1.398114 -1.36922,1.378584 -0.45513,-0.03825 -0.50838,0.444411 -0.1275,1.156068 0.1461,0.272997 0.34956,1.172826 0.45209,1.999611 0.10254,0.826794 0.47239,2.251665 0.82194,3.16638 0.3619,0.947097 0.60298,2.001708 0.55995,2.449566 -0.0716,0.744822 -0.13859,0.796554 -1.26618,0.977148 -2.2511,0.360531 -3.33575,0.442323 -3.51316,0.264888 z m 17.91972,-32.959653 c 0,-0.525312 -0.0288,-0.541629 -0.58192,-0.329382 -0.29624,0.113679 -0.32096,0.22131 -0.10939,0.476262 0.39057,0.47061 0.69131,0.406719 0.69131,-0.14688 z m -0.13607,-1.32669 c 0.46475,-0.464769 0.46641,-0.661734 0.0129,-1.538613 -0.37152,-0.718452 -1.4434,-1.420956 -2.16806,-1.420956 -0.54498,0 -1.28074,0.686763 -1.28074,1.195416 0,0.537246 0.88781,1.649061 1.52118,1.904967 0.78981,0.319113 1.50747,0.266337 1.91464,-0.140814 z"
       style="fill:#000000;stroke-width:0.238125"
       id="path6806"
       sodipodi:nodetypes="cssssssscsssssssscscsccssscsssscsssssssssscssssccssssssssscssssssssssccssssccssscc" /><path
       d="m 300.5112,59.111218 c -0.0798,-0.129226 0.0691,-0.524819 0.33104,-0.8791 0.26194,-0.354289 0.57426,-1.160995 0.69407,-1.792683 0.11977,-0.631696 0.31185,-1.507772 0.4268,-1.946847 0.32564,-1.243791 0.45214,-8.827569 0.15222,-9.127469 -0.3675,-0.367505 -0.46683,-5.140426 -0.13909,-6.684731 0.21479,-1.012192 0.21595,-1.544456 0.005,-2.474802 -0.50149,-2.215894 -0.39267,-2.156953 -1.55279,-0.841122 l -1.04946,1.190336 -1.31457,-0.497639 c -0.723,-0.273702 -1.81476,-0.83208 -2.42611,-1.240841 -0.62504,-0.417927 -1.54932,-0.808522 -2.11176,-0.892443 -1.23492,-0.184253 -2.22327,-1.04948 -2.22327,-1.946335 0,-0.480423 0.10469,-0.625336 0.45176,-0.625336 0.67331,0 1.88222,0.557799 2.82506,1.303489 0.82574,0.653088 2.78073,1.364228 3.7504,1.364228 0.67742,0 1.19823,-0.569436 1.19823,-1.310135 0,-1.376545 0.71423,-2.763922 2.12662,-4.130973 0.76108,-0.736623 1.59285,-1.512914 1.8484,-1.725087 0.39712,-0.329729 0.42767,-0.466845 0.21029,-0.943916 -0.20752,-0.455459 -0.18647,-0.633099 0.11443,-0.965592 0.2028,-0.224096 0.36875,-0.500143 0.36875,-0.61343 0,-0.270266 1.46806,-0.796439 2.40849,-0.863237 0.51808,-0.0368 0.81918,-0.206644 1.00039,-0.564318 0.42952,-0.84787 1.31854,-1.343299 2.78153,-1.550095 2.35851,-0.333375 3.87873,0.06058 4.16647,1.079628 0.0905,0.320571 0.1489,0.655643 0.12976,0.744598 -0.0192,0.08897 0.32578,0.921388 0.76645,1.849826 0.67243,1.416607 1.03094,1.868555 2.2295,2.810471 1.65842,1.303303 2.07904,1.991656 2.07904,3.402458 0,3.062915 -3.98351,2.608716 -4.89163,-0.55774 -0.11473,-0.400014 -0.0916,-1.460258 0.0577,-2.642527 l 0.24923,-1.974474 -0.76102,-1.255638 c -0.41853,-0.690596 -0.99969,-1.412045 -1.29148,-1.603221 -0.84339,-0.552623 -1.87822,-0.471634 -2.68885,0.210451 -0.39154,0.329468 -0.85429,0.599037 -1.02831,0.599037 -0.24286,0 -0.31641,0.353876 -0.31641,1.52266 0,1.307825 -0.10798,1.726121 -0.76521,2.964618 -0.4261,0.802935 -0.87732,2.085711 -1.01817,2.894619 -0.24648,1.415339 -0.23539,1.487523 0.43174,2.809093 0.64143,1.27066 0.68533,1.514922 0.69448,3.863723 0.006,1.672783 0.1214,2.803295 0.34522,3.396552 0.18452,0.489085 0.37073,1.389435 0.41383,2.000781 0.0431,0.611354 0.32556,1.711786 0.62771,2.445402 0.48032,1.166196 0.569,1.814907 0.70558,5.16086 l 0.1562,3.826997 -0.84277,1.008226 c -0.68156,0.815361 -0.98059,1.008217 -1.56331,1.008217 -0.88194,0 -1.85301,-0.41707 -1.85301,-0.795851 0,-0.153929 0.48497,-0.813134 1.07771,-1.464903 0.59276,-0.65177 1.19472,-1.40676 1.33768,-1.677757 0.31099,-0.589451 0.15693,-1.891646 -0.43499,-3.676464 -0.23334,-0.703536 -0.42424,-1.622991 -0.42424,-2.043237 0,-0.420238 -0.10424,-0.828494 -0.23161,-0.907223 -0.12742,-0.07873 -0.54673,-0.847852 -0.93184,-1.709148 -0.72177,-1.614194 -1.00537,-1.644115 -1.044,-0.110145 -0.009,0.341189 -0.23054,0.911029 -0.49321,1.266309 -0.43028,0.581997 -0.46295,0.821511 -0.32974,2.418716 0.12383,1.484708 0.0754,1.956342 -0.29752,2.902652 -0.24496,0.621454 -0.53174,1.680723 -0.63731,2.353935 -0.17291,1.102675 -0.14016,1.294229 0.33048,1.932143 0.81615,1.10623 0.69031,1.406282 -1.06041,2.528466 -1.89508,1.214711 -2.56961,1.501017 -2.77051,1.175968 z m 18.35881,-26.86977 c 0.90817,-0.908172 0.25776,-2.873075 -1.20173,-3.630494 -0.66976,-0.347559 -0.93144,-0.382117 -1.37234,-0.181228 -1.27692,0.581804 -1.26023,2.437722 0.0322,3.572427 0.91538,0.803715 1.88612,0.895097 2.54193,0.239295 z m -2.4454,-4.640947 c 0,-0.07856 -0.20008,-0.267854 -0.44463,-0.420574 -0.39852,-0.248882 -0.44461,-0.222012 -0.44461,0.259176 0,0.427396 0.0906,0.513141 0.44461,0.420574 0.24455,-0.06395 0.44463,-0.180573 0.44463,-0.259176 z"
       style="fill:#000000;stroke-width:0.222309"
       id="path7555"
       sodipodi:nodetypes="ccsssscscssssssssssssssssssssssccsssssssscsssscssssssssscsssssscccsssccsssss" /><path
       d="m 248.81287,60.617991 c -0.74573,-0.198056 -0.45153,-0.826484 0.519,-1.108628 0.69974,-0.203417 1.20741,-0.734497 1.53237,-1.603029 l 0.23322,-0.623338 -0.22031,-0.604221 c -0.12117,-0.332324 -0.22031,-0.704673 -0.22031,-0.827457 0,-0.122775 -0.0525,-0.255642 -0.11651,-0.295247 -0.0641,-0.0396 -0.54376,-0.72793 -1.06593,-1.5296 -0.52216,-0.80167 -1.08305,-1.649575 -1.24642,-1.884217 -0.54712,-0.785843 -0.76835,-1.279178 -0.77323,-1.724263 -0.004,-0.381056 0.0815,-0.548571 0.63396,-1.240771 l 0.63878,-0.800254 -0.17031,-0.433538 c -0.16663,-0.42421 -0.1644,-0.441211 0.10371,-0.790279 0.1507,-0.196212 0.89563,-0.985378 1.65539,-1.753714 1.0166,-1.028057 1.54244,-1.475749 1.99125,-1.695335 0.63522,-0.310778 0.81393,-0.525563 0.60837,-0.731127 -0.16586,-0.165859 -0.15182,-0.5132 0.0392,-0.970478 0.0909,-0.217625 0.162,-0.720764 0.16416,-1.162207 0.003,-0.428147 0.075,-1.067063 0.16207,-1.419827 0.087,-0.352765 0.1831,-1.218635 0.21347,-1.924156 0.0303,-0.705529 0.1351,-1.800859 0.23274,-2.43408 0.17398,-1.128384 0.17276,-1.176267 -0.0614,-2.405196 -0.13139,-0.689648 -0.28336,-1.75899 -0.3377,-2.376322 -0.0543,-0.617339 -0.20061,-1.459159 -0.32505,-1.870716 -0.48889,-1.617035 -0.68943,-3.220569 -0.59957,-4.794131 l 0.0698,-1.221841 -0.43741,-0.655016 c -0.24057,-0.360264 -0.64935,-0.800844 -0.90842,-0.979083 -0.25906,-0.178245 -0.47102,-0.369866 -0.47102,-0.425842 0,-0.154919 0.36074,-0.121413 0.59424,0.05517 0.39005,0.295022 0.39309,0.164163 0.006,-0.264154 -0.3655,-0.404555 -0.49991,-0.747974 -0.29277,-0.747974 0.0516,0 0.15369,0.07213 0.22688,0.160349 0.19202,0.231366 0.34837,0.198009 0.21756,-0.04645 -0.1447,-0.270379 -0.13961,-0.327717 0.0291,-0.327717 0.0769,0 0.29234,0.216466 0.47884,0.481041 0.52791,0.748939 0.65708,0.595079 0.42121,-0.501684 -0.0134,-0.06217 0.0348,-0.134688 0.10707,-0.161221 0.16799,-0.0617 0.62377,0.950037 0.88848,1.972234 0.11035,0.426162 0.24863,1.327366 0.30728,2.002681 0.0773,0.889961 0.19731,1.485692 0.4361,2.164844 0.22127,0.62933 0.3611,1.288018 0.4258,2.00598 0.10495,1.164285 0.26257,1.983743 0.44984,2.338577 0.18802,0.356219 1.05246,1.456295 1.14436,1.456295 0.0455,0 0.24067,-0.196492 0.43367,-0.43665 0.25811,-0.321174 0.31937,-0.468179 0.23168,-0.55587 -0.0656,-0.06559 -0.11921,-0.229857 -0.11921,-0.365082 0,-0.205977 0.0563,-0.245971 0.34741,-0.246539 0.27667,-4.04e-4 0.38601,-0.06847 0.5369,-0.333561 0.14414,-0.253208 0.16045,-0.367875 0.0681,-0.479096 -0.0933,-0.112488 -0.0809,-0.161718 0.0537,-0.213415 0.12815,-0.04918 0.1448,-0.103736 0.0621,-0.203409 -0.0858,-0.103308 -0.0309,-0.164848 0.22703,-0.254764 0.51214,-0.178534 0.85967,-0.146087 1.71819,0.160428 0.99016,0.353526 1.3931,0.657714 1.69368,1.278649 0.20189,0.417027 0.22987,0.60773 0.17871,1.217903 -0.0883,1.052971 -0.28643,1.449838 -0.864,1.73045 -0.46928,0.227997 -0.69956,0.59321 -0.53842,0.853934 0.0806,0.130291 1.18579,0.63922 1.80797,0.83249 0.74585,0.231694 2.28482,1.016696 2.33019,1.188601 0.025,0.09497 0.32332,0.250071 0.70043,0.364257 0.61559,0.186376 0.6692,0.18759 0.85515,0.0193 0.35925,-0.325119 0.74353,-1.176642 0.92125,-2.041369 0.24034,-1.169412 0.16341,-1.510699 -0.48433,-2.148706 -0.2903,-0.285925 -0.52782,-0.595482 -0.52782,-0.687897 0,-0.262427 -1.00539,-1.177683 -2.35175,-2.140894 -2.00587,-1.435038 -2.88624,-2.408806 -2.88624,-3.192463 0,-1.001648 1.28002,-0.83786 2.87495,0.367867 0.8127,0.614383 1.51711,1.531801 1.824,2.375551 0.1224,0.33658 0.29935,0.820617 0.39321,1.075644 0.22582,0.613551 1.36269,1.834622 1.70811,1.834622 0.18584,0 0.25498,0.05945 0.25498,0.21925 0,0.149293 0.1187,0.268847 0.37205,0.374699 0.20462,0.0855 0.45385,0.280316 0.55386,0.432932 0.15659,0.238991 0.16272,0.324154 0.0442,0.614102 -0.35805,0.875745 -0.45604,1.243868 -0.55733,2.093523 -0.22117,1.85542 -0.61554,2.893156 -1.0995,2.893156 -0.31641,0 -2.5493,-0.324948 -2.98257,-0.434044 -0.43137,-0.108622 -0.51193,-0.0978 -0.78723,0.105734 -0.26245,0.194049 -0.35521,0.209814 -0.64342,0.109346 -0.56989,-0.198671 -0.91823,-0.09761 -1.1001,0.319166 -0.0882,0.202095 -0.42309,0.875551 -0.74423,1.49657 -0.32114,0.621013 -0.6941,1.345589 -0.82881,1.610156 -0.22105,0.434146 -0.25044,0.673075 -0.30145,2.450724 l -0.0565,1.969697 -0.52644,1.611377 c -0.67711,2.072563 -1.09995,3.860824 -1.01822,4.306143 0.0687,0.374371 0.31745,0.588052 1.20509,1.035269 0.61392,0.309316 1.02038,0.789882 1.54662,1.828661 0.44287,0.874188 1.5977,2.514503 2.2442,3.187647 1.12168,1.167919 1.33777,1.986979 0.61771,2.341378 -1.82483,0.898129 -2.13963,0.991735 -3.33527,0.991735 -0.68119,0 -1.19082,-0.047 -1.26001,-0.116216 -0.22365,-0.223734 0.0664,-0.662796 0.60916,-0.922034 0.39444,-0.1884 0.59168,-0.378379 0.85936,-0.827728 0.71108,-1.193697 0.37948,-1.98431 -1.4164,-3.376981 -0.29397,-0.227967 -0.82538,-0.680887 -1.1809,-1.006488 -0.35554,-0.325601 -1.0145,-0.894816 -1.46436,-1.264908 -0.6321,-0.520032 -0.88315,-0.810797 -1.10505,-1.279832 -0.15791,-0.33381 -0.37476,-0.728506 -0.48186,-0.877114 -0.14796,-0.205253 -0.1756,-0.359884 -0.11505,-0.643421 0.0543,-0.254398 0.0141,-0.611784 -0.12606,-1.122424 -0.11318,-0.412055 -0.22278,-0.811894 -0.24356,-0.888536 -0.0238,-0.08806 -0.19024,0.01027 -0.45196,0.267243 -1.83132,1.79774 -2.11563,2.006432 -2.5225,1.85174 -0.23823,-0.09058 -0.34704,-0.0705 -0.60236,0.111337 -0.17138,0.122036 -0.31161,0.247309 -0.31161,0.278386 0,0.03105 0.28896,0.371843 0.64212,0.757256 0.7092,0.773971 0.94535,1.34366 1.16924,2.820707 0.1295,0.854332 1.11211,3.253218 1.50523,3.674797 0.35856,0.384542 0.66473,1.215732 0.59152,1.605946 -0.0788,0.420381 -0.11581,0.43567 -2.18247,0.902784 -1.47505,0.333397 -2.49517,0.394361 -3.24892,0.194165 z m 16.41244,-31.569854 c -0.11388,-0.238805 -0.23422,-0.35657 -0.32771,-0.320699 -0.0813,0.0312 -0.20212,0.05672 -0.26858,0.05672 -0.12717,0 0.56242,0.62954 0.69781,0.637033 0.0432,0.0023 -0.003,-0.165477 -0.10152,-0.373042 z m -0.47778,-0.883035 c 0.11488,-0.779246 -1.72739,-2.633895 -3.10799,-3.128886 -0.99391,-0.356352 -0.79047,0.600571 0.37375,1.758087 0.75631,0.751957 1.54736,1.32391 2.10762,1.523889 0.46778,0.166963 0.58361,0.138663 0.62662,-0.15309 z"
       style="fill:#000000;stroke-width:0.106898"
       id="path9090"
       sodipodi:nodetypes="csscssssscscsssssscsssscsscsssccscsssssscssssssscsssssssssssssssssssssssssscssssssssccsssssssssssssssssscssssssssccssscsssssss" /><path
       d="m 204.86089,60.239916 c 0,-0.228362 0.20091,-0.436414 0.57452,-0.59489 0.60094,-0.2549 1.69621,-1.352039 1.34976,-1.352039 -0.14247,0 -0.13866,-0.07366 0.0132,-0.256685 0.32266,-0.388782 0.0681,-0.907057 -0.79149,-1.611429 -0.42708,-0.34995 -1.22854,-1.188817 -1.78105,-1.864145 -0.55251,-0.675334 -1.04236,-1.190087 -1.08853,-1.143899 -0.15336,0.153345 0.48541,2.658769 0.7977,3.128857 0.16891,0.254267 0.52588,0.789625 0.79326,1.18968 0.26738,0.400054 0.48614,0.835507 0.48614,0.967678 0,0.24889 -0.71125,0.650615 -1.15192,0.650615 -0.13826,0 -0.86063,0.198871 -1.60524,0.441946 -1.64009,0.535379 -2.77805,0.59334 -2.69017,0.137022 0.0322,-0.16771 0.23645,-0.393533 0.4537,-0.501832 0.56797,-0.283171 1.10451,-0.801981 1.10451,-1.068034 0,-0.125944 0.13921,-0.311032 0.30937,-0.411312 0.26553,-0.156499 0.27262,-0.206395 0.0501,-0.35223 -0.17237,-0.112961 -0.35009,-0.09924 -0.53035,0.04096 -0.23358,0.1817 -0.23962,0.170602 -0.0437,-0.08025 0.12667,-0.16211 0.37371,-0.25287 0.55749,-0.204811 0.41479,0.108473 0.61553,-0.441111 0.4449,-1.218001 -0.13295,-0.605313 -2.10976,-4.736377 -2.6044,-5.442572 -0.55341,-0.790108 -0.39109,-1.37527 0.93259,-3.361804 0.68024,-1.020895 1.23695,-1.937486 1.23713,-2.036865 1.8e-4,-0.09938 0.22739,-0.45736 0.50491,-0.795506 0.27753,-0.338137 0.63026,-0.859245 0.78383,-1.15801 0.15361,-0.298771 0.40384,-0.646597 0.55609,-0.772955 0.19694,-0.16344 0.27683,-0.546964 0.27683,-1.32888 0,-0.604524 0.15059,-1.688598 0.33466,-2.409051 0.18408,-0.72046 0.39268,-1.94632 0.46358,-2.724139 0.14389,-1.578844 0.21496,-1.759662 1.1627,-2.958656 0.36728,-0.464616 0.71771,-1.023146 0.77875,-1.241173 0.061,-0.21802 0.1941,-0.566287 0.29569,-0.773918 0.18525,-0.378626 -0.18409,-1.94861 -1.1116,-4.725145 -0.30439,-0.911179 -0.3324,-1.328699 -0.2314,-3.447171 0.0679,-1.423621 0.0383,-2.950911 -0.0725,-3.730662 -0.19964,-1.406518 -0.15043,-1.762515 0.13857,-1.002387 0.19026,0.500435 0.53965,0.634357 0.53965,0.206841 0,-0.158148 0.10364,-0.21985 0.26516,-0.157867 0.19045,0.07308 0.26518,-0.01817 0.26518,-0.323746 0,-0.418088 0.28736,-0.849772 0.56568,-0.849772 0.26863,0 0.13984,0.70059 -0.31596,1.718545 -0.40144,0.896588 -0.446,1.18366 -0.36438,2.347355 0.17336,2.471544 0.76274,5.517765 1.29003,6.667531 0.4708,1.026573 0.94596,1.451296 0.94596,0.845542 0,-0.164997 0.16695,-0.265171 0.44195,-0.265171 0.4041,0 0.44194,-0.06628 0.44194,-0.773858 0,-0.48166 -0.10296,-0.859292 -0.27266,-1.000143 -0.18915,-0.156992 -0.21623,-0.282715 -0.0884,-0.410556 0.10134,-0.10135 0.18428,-0.332153 0.18428,-0.512903 0,-0.180752 0.0713,-0.284568 0.15844,-0.230715 0.20156,0.124581 1.66652,-2.448405 2.02902,-3.563715 0.15097,-0.464422 0.40444,-1.441033 0.56329,-2.170239 0.59827,-2.746428 2.24375,-5.303348 3.4129,-5.303348 0.74994,0 0.99215,0.532245 0.83059,1.825246 -0.20784,1.663566 -1.14802,3.325339 -2.82218,4.988221 -1.63984,1.628806 -2.75784,3.292317 -2.75784,4.103483 0,0.291054 -0.11933,0.867383 -0.26517,1.280747 -0.41394,1.173244 -0.36142,1.413773 0.30936,1.416934 0.316,0.0013 0.6587,0.06114 0.76156,0.132578 0.35286,0.24504 0.78525,1.004205 0.78525,1.378683 0,0.282135 0.16977,0.42549 0.6876,0.580639 0.37818,0.113302 0.81571,0.401524 0.97228,0.640484 0.33392,0.509615 0.3639,0.693514 0.085,0.521127 -0.12231,-0.07559 -0.16514,-0.02826 -0.11048,0.122156 0.0491,0.135064 0.16366,0.230708 0.25465,0.212535 0.1449,-0.02893 0.14822,0.994202 0.009,2.643762 -0.0364,0.431109 -0.067,0.4543 -0.25686,0.194742 -0.16133,-0.220626 -0.27429,-0.245822 -0.44964,-0.100281 -0.18836,0.156311 -0.22456,0.06628 -0.18501,-0.459913 0.0489,-0.650981 0.0483,-0.651602 -0.12138,-0.124133 -0.16597,0.515943 -0.60734,0.972481 -0.94014,0.972481 -0.0905,0 -0.0679,-0.116569 0.0504,-0.25905 0.1432,-0.172547 0.17282,-0.508727 0.0887,-1.006751 -0.11638,-0.688923 -0.14548,-0.721489 -0.37011,-0.414272 -0.22487,0.307518 -0.24381,0.286892 -0.24381,-0.265391 0,-0.360547 0.18725,-0.86902 0.47061,-1.277914 0.31921,-0.460608 0.41274,-0.73699 0.29072,-0.859012 -0.33922,-0.339221 -1.1149,1.59703 -1.1149,2.783015 0,0.578535 -0.0746,1.127464 -0.16572,1.219827 -0.0911,0.09237 -0.5431,0.883893 -1.00432,1.758939 -1.72752,3.277585 -1.64812,3.041853 -1.53335,4.552038 0.074,0.973852 0.0455,1.370031 -0.0989,1.370031 -0.14283,0 -0.20297,0.712656 -0.20297,2.405416 0,2.218613 -0.024,2.396123 -0.30937,2.285734 -0.85256,-0.329826 -1.24515,-0.311606 -1.36414,0.06334 -0.065,0.204651 -0.21218,0.378473 -0.32717,0.386271 -0.23758,0.0161 -2.08145,3.637063 -2.07164,4.068246 0.004,0.154927 0.4027,0.615843 0.88706,1.024248 0.51428,0.433662 1.18861,1.272496 1.62096,2.016428 0.93788,1.6138 1.82059,2.781064 2.28899,3.026864 0.47222,0.24782 1.12409,1.404903 0.98931,1.756097 -0.0573,0.149516 -0.4466,0.363206 -0.86495,0.474866 -0.41837,0.111665 -1.02191,0.314993 -1.34118,0.451841 -0.32631,0.139855 -1.15854,0.248821 -1.90037,0.248821 -1.19902,0 -1.31984,-0.03214 -1.31984,-0.351186 z m -2.65168,-10.011201 c 0,-0.14584 -0.0796,-0.216009 -0.17678,-0.155916 -0.0972,0.06007 -0.17678,0.228583 -0.17678,0.374424 0,0.145842 0.0796,0.216002 0.17678,0.15591 0.0972,-0.06007 0.17678,-0.228576 0.17678,-0.374418 z M 212.63912,21.51465 c 0,-0.319163 -0.31852,-0.321354 -0.40183,-0.0027 -0.0619,0.236881 -0.015,0.310129 0.15668,0.244264 0.13483,-0.05171 0.24515,-0.16042 0.24515,-0.241505 z m 1.23943,-1.075348 c 1.3365,-1.377159 2.6779,-4.872346 2.12544,-5.538025 -0.19083,-0.229933 -0.28025,-0.231216 -0.70775,-0.01015 -1.25254,0.647719 -3.29163,5.248748 -2.66222,6.007125 0.32921,0.396679 0.46153,0.347886 1.24453,-0.458958 z"
       style="fill:#000000;fill-opacity:1;stroke-width:0.176778"
       id="path23928" /></g></svg>
